<?xml version="1.0" encoding="utf-8"?>
<!-- Generator: Adobe Illustrator 22.0.0, SVG Export Plug-In . SVG Version: 6.00 Build 0)  -->
<svg version="1.1"
	 id="svg8" inkscape:version="0.92.2 (5c3e80d, 2017-08-06)" sodipodi:docname="barge.svg" xmlns:cc="http://creativecommons.org/ns#" xmlns:dc="http://purl.org/dc/elements/1.1/" xmlns:inkscape="http://www.inkscape.org/namespaces/inkscape" xmlns:rdf="http://www.w3.org/1999/02/22-rdf-syntax-ns#" xmlns:sodipodi="http://sodipodi.sourceforge.net/DTD/sodipodi-0.dtd" xmlns:svg="http://www.w3.org/2000/svg"
	 xmlns="http://www.w3.org/2000/svg" xmlns:xlink="http://www.w3.org/1999/xlink" x="0px" y="0px" viewBox="0 0 209.2 211.7"
	 style="enable-background:new 0 0 209.2 211.7;" xml:space="preserve">
<style type="text/css">
	.st0{fill:#939393;}
	.st1{fill:#5C0000;}
	.st2{fill:#960000;}
	.st3{fill:#B0822D;}
	.st4{fill:#00456C;}
	.st5{fill:#003D60;}
	.st6{fill:#2F0000;}
	.st7{fill:#8B8B8B;}
	.st8{fill:#6E6E6E;}
	.st9{fill:#414141;}
	.st10{fill:#282828;}
	.st11{fill:#1C1C1C;}
	.st12{fill:#3D3D3D;}
	.st13{fill:#640404;}
	.st14{fill:#340202;}
	.st15{fill:#16AE00;}
	.st16{fill:#1CD900;}
	.st17{fill:#18BA00;}
	.st18{fill:#C2AE00;}
	.st19{fill:#D9C100;}
	.st20{fill:#A79600;}
	.st21{fill:#CA0000;}
	.st22{fill:#B30000;}
	.st23{fill:#860000;}
	.st24{fill:#BC2A00;}
	.st25{fill:#D97C00;}
	.st26{fill:#BC6A00;}
	.st27{fill:#9E5900;}
	.st28{fill:#004BBC;}
	.st29{fill:#005FED;}
	.st30{fill:#0057DB;}
	.st31{fill:#0051CC;}
	.st32{fill:#F7FF05;}
	.st33{fill:#D9E000;}
	.st34{fill:#B2B700;}
	.st35{font-family:'ArialMT';}
	.st36{font-size:6px;}
	.st37{font-size:18px;}
	.st38{fill:#79FFD4;}
</style>
<sodipodi:namedview  bordercolor="#666666" borderopacity="1.0" id="base" inkscape:current-layer="layer3" inkscape:cx="296.02884" inkscape:cy="444.59091" inkscape:document-units="mm" inkscape:pageopacity="0.0" inkscape:pageshadow="2" inkscape:window-height="986" inkscape:window-maximized="1" inkscape:window-width="1920" inkscape:window-x="-11" inkscape:window-y="-11" inkscape:zoom="1.4" pagecolor="#ffffff" showgrid="false">
	</sodipodi:namedview>
<g id="layer2" inkscape:groupmode="layer" inkscape:label="Second Plan">
	<path id="path4523-3" inkscape:connector-curvature="0" sodipodi:nodetypes="ccccc" class="st0" d="M39.9,18.1l0.3,28.1L0,120.9
		L0,92L39.9,18.1z"/>
	<path id="path4521-6" inkscape:connector-curvature="0" sodipodi:nodetypes="ccccc" class="st1" d="M37.6,21.8l0,28.7l168.9,90.7
		l0-28.7L37.6,21.8z"/>
	<path id="path4534-1" inkscape:connector-curvature="0" class="st2" d="M37.2,22.7l2.7-4.6l169.2,89.6l-3,5.7L37.2,22.7z"/>
	<path id="path4536-2" inkscape:connector-curvature="0" sodipodi:nodetypes="ccccc" class="st2" d="M45.4,21.3l-5.5-3.3L0,92
		l6.1,3.2L45.4,21.3z"/>
</g>
<g id="layer1" inkscape:groupmode="layer" inkscape:label="Calque 1">
	
		<rect id="rect3699" x="62.1" y="32.8" transform="matrix(0.4732 -0.8809 0.8809 0.4732 -58.2644 159.8316)" class="st0" width="84.9" height="191.7"/>
	
		<rect id="rect3699-6" x="62.1" y="17.8" transform="matrix(0.4732 -0.8809 0.8809 0.4732 -45.0098 151.9606)" class="st3" width="84.9" height="191.7"/>
	<path id="path4521" inkscape:connector-curvature="0" sodipodi:nodetypes="ccccc" class="st4" d="M0,92l0,28.7l168.9,90.7l0-28.7
		L0,92z"/>
	<path id="path4523" inkscape:connector-curvature="0" sodipodi:nodetypes="ccccc" class="st5" d="M209.1,107.6l0,28.9l-40.2,74.8
		l0-28.9L209.1,107.6z"/>
	<path id="path4534" inkscape:connector-curvature="0" class="st2" d="M0,92l2.7-4.6L171.9,177l-3,5.7L0,92z"/>
	<path id="path4536" inkscape:connector-curvature="0" class="st2" d="M209.1,107.6l-5.1-3l-41.1,74.8l6.1,3.2L209.1,107.6z"/>
	<path id="path4625" inkscape:connector-curvature="0" class="st6" d="M43,25.8v6.5L11.7,92.2l-3.5-1.9L43,25.8z"/>
	
		<rect id="rect4627" x="27.2" y="53.7" transform="matrix(0.4752 -0.8799 0.8799 0.4752 -40.3974 81.4991)" class="st7" width="41.8" height="41.8"/>
	
		<rect id="rect4627-2" x="26.6" y="8.2" transform="matrix(0.4752 -0.8799 0.8799 0.4752 -0.6725 57.0609)" class="st8" width="41.8" height="41.8"/>
	<path id="path4644" inkscape:connector-curvature="0" class="st9" d="M19.2,37.5l0.6,45.5l36.8,19.9L56,57.4L19.2,37.5z"/>
	<path id="path4646" inkscape:connector-curvature="0" class="st10" d="M56,57.4l19.9-36.8l0.6,45.5l-19.9,36.8L56,57.4z"/>
	<ellipse id="path4648" class="st11" cx="83.2" cy="73.7" rx="4.2" ry="3.5"/>
	<path id="path4665" inkscape:connector-curvature="0" class="st11" d="M78.9,10.9l0.2,62.9l8.3-0.1l-0.2-63L78.9,10.9z"/>
	<ellipse id="path4648-4" class="st12" cx="83" cy="11.1" rx="4.2" ry="3.5"/>
	<path id="path4524" inkscape:connector-curvature="0" class="st13" d="M0,92v13.7l168.9,90.7l0-13.9L0,92z"/>
	<path id="path4526" inkscape:connector-curvature="0" class="st14" d="M168.9,196.4l40.2-74.8v-13.9l-40.2,74.8L168.9,196.4z"/>
</g>
<g id="layer3" inkscape:groupmode="layer" inkscape:label="Cargaison">
	
		<rect id="rect6011" x="111.8" y="75.8" transform="matrix(0.4771 -0.8788 0.8788 0.4771 -20.4198 158.6511)" class="st15" width="22.7" height="41.3"/>
	
		<rect id="rect6011-8" x="111.6" y="58.1" inkscape:transform-center-x="-6.6817382" inkscape:transform-center-y="-6.4144687" transform="matrix(0.4771 -0.8788 0.8788 0.4771 -4.8917 149.2416)" class="st15" width="22.7" height="41.3">
	</rect>
	<path id="path6028" inkscape:connector-curvature="0" class="st16" d="M99.4,78.9l0.1,17.8l36.3,19.7l-0.1-17.8L99.4,78.9z"/>
	<path id="path6030" inkscape:connector-curvature="0" class="st17" d="M135.7,98.6l10.8-20l0.1,17.8l-10.8,20L135.7,98.6z"/>
	
		<rect id="rect6011-3" x="148" y="95.5" transform="matrix(0.4771 -0.8788 0.8788 0.4771 -18.7585 200.843)" class="st15" width="22.7" height="41.3"/>
	
		<rect id="rect6011-8-1" x="147.9" y="77.8" inkscape:transform-center-x="-6.6817382" inkscape:transform-center-y="-6.4144687" transform="matrix(0.4771 -0.8788 0.8788 0.4771 -3.2305 191.4335)" class="st18" width="22.7" height="41.3">
	</rect>
	<path id="path6028-7" inkscape:connector-curvature="0" class="st19" d="M135.7,98.6l0.1,17.8l36.3,19.7l-0.1-17.8L135.7,98.6z"/>
	<path id="path6030-9" inkscape:connector-curvature="0" class="st20" d="M172,118.3l10.8-20L183,116l-10.8,20L172,118.3z"/>
	
		<rect id="rect6011-6" x="100.9" y="95.8" transform="matrix(0.4771 -0.8788 0.8788 0.4771 -43.6446 159.5655)" class="st15" width="22.7" height="41.3"/>
	
		<rect id="rect6011-8-0" x="100.8" y="78.1" inkscape:transform-center-x="-6.6817382" inkscape:transform-center-y="-6.4144687" transform="matrix(0.4771 -0.8788 0.8788 0.4771 -28.1166 150.1561)" class="st21" width="22.7" height="41.3">
	</rect>
	<path id="path6028-2" inkscape:connector-curvature="0" class="st22" d="M88.6,98.8l0.1,17.8l36.3,19.7l-0.1-17.8L88.6,98.8z"/>
	<path id="path6030-3" inkscape:connector-curvature="0" class="st23" d="M124.9,118.5l10.8-20l0.1,17.8l-10.8,20L124.9,118.5z"/>
	
		<rect id="rect6011-4" x="137.2" y="115.5" transform="matrix(0.4771 -0.8788 0.8788 0.4771 -41.9834 201.7574)" class="st15" width="22.7" height="41.3"/>
	
		<rect id="rect6011-8-15" x="137.1" y="97.8" inkscape:transform-center-x="-6.6817382" inkscape:transform-center-y="-6.4144687" transform="matrix(0.4771 -0.8788 0.8788 0.4771 -26.4554 192.3479)" class="st15" width="22.7" height="41.3">
	</rect>
	<path id="path6028-1" inkscape:connector-curvature="0" class="st16" d="M124.9,118.5l0.1,17.8l36.3,19.7l-0.1-17.8L124.9,118.5z"
		/>
	<path id="path6030-4" inkscape:connector-curvature="0" class="st17" d="M161.1,138.2l10.8-20l0.1,17.8l-10.8,20L161.1,138.2z"/>
	
		<rect id="rect6011-9" x="111.6" y="58.1" transform="matrix(0.4771 -0.8788 0.8788 0.4771 -4.8917 149.2416)" class="st15" width="22.7" height="41.3"/>
	
		<rect id="rect6011-8-4" x="111.5" y="40.3" inkscape:transform-center-x="-6.6817382" inkscape:transform-center-y="-6.4144687" transform="matrix(0.4771 -0.8788 0.8788 0.4771 10.6363 139.8322)" class="st15" width="22.7" height="41.3">
	</rect>
	<path id="path6028-6" inkscape:connector-curvature="0" class="st16" d="M99.3,61.1l0.1,17.8l36.3,19.7l-0.1-17.8L99.3,61.1z"/>
	<path id="path6030-1" inkscape:connector-curvature="0" class="st17" d="M135.6,80.8l10.8-20l0.1,17.8l-10.8,20L135.6,80.8z"/>
	
		<rect id="rect6011-1" x="147.9" y="77.8" transform="matrix(0.4771 -0.8788 0.8788 0.4771 -3.2305 191.4335)" class="st24" width="22.7" height="41.3"/>
	
		<rect id="rect6011-8-48" x="147.8" y="60" inkscape:transform-center-x="-6.6817382" inkscape:transform-center-y="-6.4144687" transform="matrix(0.4771 -0.8788 0.8788 0.4771 12.2975 182.024)" class="st25" width="22.7" height="41.3">
	</rect>
	<path id="path6028-8" inkscape:connector-curvature="0" class="st26" d="M135.6,80.8l0.1,17.8l36.3,19.7l-0.1-17.8L135.6,80.8z"/>
	<path id="path6030-2" inkscape:connector-curvature="0" class="st27" d="M171.8,100.5l10.8-20l0.1,17.8l-10.8,20L171.8,100.5z"/>
	
		<rect id="rect6011-61" x="100.8" y="78.1" transform="matrix(0.4771 -0.8788 0.8788 0.4771 -28.1166 150.1561)" class="st28" width="22.7" height="41.3"/>
	
		<rect id="rect6011-8-7" x="100.6" y="60.3" inkscape:transform-center-x="-6.6817382" inkscape:transform-center-y="-6.4144687" transform="matrix(0.4771 -0.8788 0.8788 0.4771 -12.5886 140.7466)" class="st29" width="22.7" height="41.3">
	</rect>
	<path id="path6028-4" inkscape:connector-curvature="0" class="st30" d="M88.4,81.1l0.1,17.8l36.3,19.7l-0.1-17.8L88.4,81.1z"/>
	<path id="path6030-0" inkscape:connector-curvature="0" class="st31" d="M124.7,100.8l10.8-20l0.1,17.8l-10.8,20L124.7,100.8z"/>
	
		<rect id="rect6011-69" x="137.1" y="97.8" transform="matrix(0.4771 -0.8788 0.8788 0.4771 -26.4554 192.3479)" class="st32" width="22.7" height="41.3"/>
	
		<rect id="rect6011-8-6" x="136.9" y="80" inkscape:transform-center-x="-6.6817382" inkscape:transform-center-y="-6.4144687" transform="matrix(0.4771 -0.8788 0.8788 0.4771 -10.9274 182.9384)" class="st32" width="22.7" height="41.3">
	</rect>
	<path id="path6028-29" inkscape:connector-curvature="0" class="st33" d="M124.7,100.8l0.1,17.8l36.3,19.7l-0.1-17.8L124.7,100.8z"
		/>
	<path id="path6030-20" inkscape:connector-curvature="0" class="st34" d="M161,120.5l10.8-20l0.1,17.8l-10.8,20L161,120.5z"/>
	<text transform="matrix(0.8866 0.4626 -0.4626 0.8866 92.7983 94.6232)" class="st35 st36">StairLine</text>
	<text transform="matrix(0.8866 0.4626 -0.4626 0.8866 130.0609 132.3976)" class="st35 st36">StairLine</text>
	<text transform="matrix(0.5077 -0.8615 0.8615 0.5077 119.3758 66.0444)" class="st35 st37">S</text>
	<text transform="matrix(0.5077 -0.8615 0.8615 0.5077 129.7294 72.1458)" class="st35 st37">L</text>
	<text transform="matrix(0.5077 -0.8615 0.8615 0.5077 144.7689 105.2318)" class="st35 st37">S</text>
	<text transform="matrix(0.5077 -0.8615 0.8615 0.5077 155.1207 111.3322)" class="st35 st37">L</text>
	<path id="path6252" inkscape:connector-curvature="0" class="st38" d="M66.3,42.9l7.4-13.7L74,46.2l-7.4,13.7L66.3,42.9z"/>
	<path id="path6252-4" inkscape:connector-curvature="0" class="st38" d="M58.9,56.6l7.4-13.7l0.2,16.9l-7.4,13.7L58.9,56.6z"/>
</g>
</svg>
