<?xml version="1.0" encoding="utf-8"?>
<!-- Generator: Adobe Illustrator 22.0.0, SVG Export Plug-In . SVG Version: 6.00 Build 0)  -->
<svg version="1.1"
	 id="svg8" inkscape:version="0.92.2 (5c3e80d, 2017-08-06)" sodipodi:docname="bateau.svg" xmlns:cc="http://creativecommons.org/ns#" xmlns:dc="http://purl.org/dc/elements/1.1/" xmlns:inkscape="http://www.inkscape.org/namespaces/inkscape" xmlns:osb="http://www.openswatchbook.org/uri/2009/osb" xmlns:rdf="http://www.w3.org/1999/02/22-rdf-syntax-ns#" xmlns:sodipodi="http://sodipodi.sourceforge.net/DTD/sodipodi-0.dtd" xmlns:svg="http://www.w3.org/2000/svg"
	 xmlns="http://www.w3.org/2000/svg" xmlns:xlink="http://www.w3.org/1999/xlink" x="0px" y="0px" viewBox="0 0 364.8 286.9"
	 style="enable-background:new 0 0 364.8 286.9;" xml:space="preserve">
<style type="text/css">
	.st0{fill:#E80000;}
	.st1{fill:#D30000;}
	.st2{fill:#B10000;}
	.st3{fill:#864400;}
	.st4{fill:#E3E3E3;}
	.st5{fill:#D5D5D5;}
	.st6{fill:#FF0202;}
	.st7{fill:#E90000;}
	.st8{fill:#A4A4A4;}
	.st9{fill:#F3F3F3;}
	.st10{fill:#D9D9D9;}
	.st11{fill:#C4C4C4;}
	.st12{fill:#D8D8D8;}
	.st13{fill:#B5FAFB;}
	.st14{fill:none;stroke:#000000;stroke-width:0.17;stroke-linecap:round;}
	.st15{fill:#C7C7C7;}
	.st16{fill:#E8E8E8;}
</style>
<sodipodi:namedview  bordercolor="#666666" borderopacity="1.0" id="base" inkscape:current-layer="layer3" inkscape:cx="334.80492" inkscape:cy="653.40898" inkscape:document-units="mm" inkscape:pageopacity="0.0" inkscape:pageshadow="2" inkscape:window-height="986" inkscape:window-maximized="1" inkscape:window-width="1920" inkscape:window-x="-11" inkscape:window-y="-11" inkscape:zoom="1.4142136" pagecolor="#ffffff" showgrid="false">
	</sodipodi:namedview>
<g id="layer2" inkscape:groupmode="layer" inkscape:label="Arrière">
	<path id="path823-2" inkscape:connector-curvature="0" sodipodi:nodetypes="ccccc" class="st0" d="M46.6,30.3l248,117.2l2.6,41
		L47.6,72.3L46.6,30.3z"/>
	<path id="path873" inkscape:connector-curvature="0" class="st1" d="M364.3,246.5l-69.7-99l0.4,16.3l58.4,82.9L364.3,246.5z"/>
	<path id="path875" inkscape:connector-curvature="0" class="st2" d="M46.6,30.3l-46.5,100l6,2.9L47,46.6L46.6,30.3z"/>
</g>
<g id="layer1" inkscape:groupmode="layer" inkscape:label="Calque 1">
	
		<rect id="rect815" x="92.6" y="17.7" transform="matrix(0.4273 -0.9041 0.9041 0.4273 -55.4651 222.0323)" class="st3" width="109.8" height="274.3"/>
	<path id="path821" inkscape:connector-curvature="0" sodipodi:nodetypes="cccc" class="st3" d="M295,163.7L248.1,263l116.2-1
		L295,163.7z"/>
	<path id="path823" inkscape:connector-curvature="0" sodipodi:nodetypes="ccccc" class="st4" d="M0.1,130.3l248,117.2v39.9
		L1.1,172.3L0.1,130.3z"/>
	<path id="path825" inkscape:connector-curvature="0" sodipodi:nodetypes="ccccc" class="st5" d="M248.1,247.5l116.2-1v40.9H248.1
		V247.5z"/>
	<path id="path1187" inkscape:connector-curvature="0" class="st6" d="M0.1,145.8l248,117.2v-15.5L0.1,130.3L0.1,145.8z"/>
	<path id="path1204" inkscape:connector-curvature="0" class="st7" d="M248.1,247.5l116.2-1v15.5l-116.2,1V247.5z"/>
</g>
<g id="layer3" inkscape:groupmode="layer" inkscape:label="Cabine">
	
		<rect id="rect878" x="90.2" y="46.3" transform="matrix(0.431 -0.9024 0.9024 0.431 -52.3839 189.1235)" class="st8" width="67.1" height="179.6"/>
	
		<rect id="rect878-1" x="90" y="-14.6" transform="matrix(0.431 -0.9024 0.9024 0.431 2.4904 154.2793)" class="st9" width="67.1" height="179.6"/>
	<path id="path895" inkscape:connector-curvature="0" class="st10" d="M28.1,66.7l0.2,60.9l162.1,77.4l-0.2-60.9L28.1,66.7z"/>
	<path id="path897" inkscape:connector-curvature="0" class="st11" d="M219.1,83.6l0.2,60.9l-28.9,60.5l-0.2-60.9L219.1,83.6z"/>
	
		<rect id="rect899" x="187.2" y="131.7" transform="matrix(0.4335 -0.9011 0.9011 0.4335 -8.5676 278.7307)" class="st9" width="60.5" height="28.9"/>
	<path id="path901" inkscape:connector-curvature="0" sodipodi:nodetypes="ccccc" class="st9" d="M217.3,179.7l-27,25.4l-0.1-3.8
		l23.7-23.2L217.3,179.7z"/>
	<path id="path903" inkscape:connector-curvature="0" sodipodi:nodetypes="ccccc" class="st12" d="M190.3,201.3l1.3-1.9l21.7-21.6
		l0.7,0.3L190.3,201.3z"/>
	<path id="path905" inkscape:connector-curvature="0" sodipodi:nodetypes="ccccc" class="st13" d="M33,75L33.1,92l11.8,5.6
		l-0.1-17.1L33,75z"/>
	<path id="path905-17" inkscape:connector-curvature="0" sodipodi:nodetypes="ccccc" class="st13" d="M56.5,86.1l0.1,17.1l11.8,5.6
		l-0.1-17.1L56.5,86.1z"/>
	<path id="path905-12" inkscape:connector-curvature="0" sodipodi:nodetypes="ccccc" class="st13" d="M80,97.3l0.1,17.1l11.8,5.6
		l-0.1-17.1L80,97.3z"/>
	<path id="path905-7" inkscape:connector-curvature="0" sodipodi:nodetypes="ccccc" class="st13" d="M103.6,108.5l0.1,17.1l11.8,5.6
		l-0.1-17.1L103.6,108.5z"/>
	<path id="path905-8" inkscape:connector-curvature="0" sodipodi:nodetypes="ccccc" class="st13" d="M127.1,119.7l0.1,17.1l11.8,5.6
		l-0.1-17.1L127.1,119.7z"/>
	<path id="path905-85" inkscape:connector-curvature="0" sodipodi:nodetypes="ccccc" class="st13" d="M150.6,130.9l0.1,17.1
		l11.8,5.6l-0.1-17.1L150.6,130.9z"/>
	<path id="path905-82" inkscape:connector-curvature="0" sodipodi:nodetypes="ccccc" class="st13" d="M174.2,142.1l0.1,17.1
		l11.8,5.6l-0.1-17.1L174.2,142.1z"/>
	<path id="path905-3" inkscape:connector-curvature="0" sodipodi:nodetypes="ccccc" class="st13" d="M32.8,104.6l0.1,17.1l11.8,5.6
		l-0.1-17.1L32.8,104.6z"/>
	<path id="path905-17-1" inkscape:connector-curvature="0" sodipodi:nodetypes="ccccc" class="st13" d="M56.3,115.7l0.1,17.1
		l11.8,5.6l-0.1-17.1L56.3,115.7z"/>
	<path id="path905-12-6" inkscape:connector-curvature="0" sodipodi:nodetypes="ccccc" class="st13" d="M79.8,126.9L80,144l11.8,5.6
		l-0.1-17.1L79.8,126.9z"/>
	<path id="path905-7-7" inkscape:connector-curvature="0" sodipodi:nodetypes="ccccc" class="st13" d="M103.4,138.1l0.1,17.1
		l11.8,5.6l-0.1-17.1L103.4,138.1z"/>
	<path id="path905-8-7" inkscape:connector-curvature="0" sodipodi:nodetypes="ccccc" class="st13" d="M126.9,149.3l0.1,17.1
		l11.8,5.6l-0.1-17.1L126.9,149.3z"/>
	<path id="path905-85-6" inkscape:connector-curvature="0" sodipodi:nodetypes="ccccc" class="st13" d="M150.4,160.5l0.1,17.1
		l11.8,5.6l-0.1-17.1L150.4,160.5z"/>
	<path id="path905-82-4" inkscape:connector-curvature="0" sodipodi:nodetypes="ccccc" class="st13" d="M174,171.7l0.1,17.1
		l11.8,5.6l-0.1-17.1L174,171.7z"/>
	<path id="path1170" inkscape:connector-curvature="0" sodipodi:nodetypes="ccccc" class="st13" d="M193.2,142.1l0.2,14.1l9-19.4
		l-0.2-14.1L193.2,142.1z"/>
	<path id="path1170-8" inkscape:connector-curvature="0" sodipodi:nodetypes="ccccc" class="st13" d="M206.4,115.6l0.2,14.1l9-19.4
		l-0.2-14.1L206.4,115.6z"/>
	<path id="path1236" inkscape:connector-curvature="0" class="st14" d="M191.2,162.2l0,5l26,12.5l0-5L191.2,162.2z"/>
	<path id="path1238" inkscape:connector-curvature="0" class="st14" d="M217.3,174.7l26.2-54.5l0,5l-26.2,54.5L217.3,174.7z"/>
	<path id="path1240" inkscape:connector-curvature="0" class="st14" d="M243.6,125.2l-26-12.5l0-5l26,12.5L243.6,125.2z"/>
</g>
<g id="layer6" inkscape:groupmode="layer" inkscape:label="Toit Arrière">
	<path id="path1055-8" inkscape:connector-curvature="0" class="st15" d="M57,6.2l162.1,77.4v-7.9L56.9,0.4L57,6.2z"/>
	<path id="path1100" inkscape:connector-curvature="0" class="st15" d="M56.9,0.4L28,60.9l0,5.8L57,6.2L56.9,0.4z"/>
	<path id="path1100-4" inkscape:connector-curvature="0" class="st15" d="M59.9,1.9L31,62.4l0,5.8L60,7.7L59.9,1.9z"/>
	<path id="path1055-2" inkscape:connector-curvature="0" class="st15" d="M29.6,63.7l162.1,77.4v-7.9L29.5,57.9L29.6,63.7z"/>
	<path id="path1055-8-9" inkscape:connector-curvature="0" class="st15" d="M55.5,9.2l162.1,77.4v-7.9L55.4,3.4L55.5,9.2z"/>
	<path id="path1162" inkscape:connector-curvature="0" class="st16" d="M56.9,0.4l-1.5,3l162.1,75.3l1.5-3L56.9,0.4z"/>
	<path id="path1164" inkscape:connector-curvature="0" class="st16" d="M56.9,0.4L28,60.9l3,1.5L59.9,1.9L56.9,0.4z"/>
	<path id="path1166" inkscape:connector-curvature="0" class="st16" d="M28,60.9l1.5-3l162.1,75.3l-1.5,3L28,60.9z"/>
	<path id="path1168" inkscape:connector-curvature="0" class="st16" d="M215.4,73.6l-28.9,60.5l3.7,2l28.9-60.5L215.4,73.6z"/>
</g>
<g id="layer5" inkscape:groupmode="layer" inkscape:label="Toit Avant">
	<path id="path1083" inkscape:connector-curvature="0" class="st15" d="M219.1,75.7l-28.9,60.5v7.9l28.9-60.5V75.7z"/>
	<path id="path1083-1" inkscape:connector-curvature="0" class="st16" d="M215.4,73.6l-28.9,60.5v7.9l28.9-60.5V73.6z"/>
</g>
<path id="path1055" inkscape:connector-curvature="0" class="st15" d="M28.1,66.7l162.1,77.4v-7.9L28,60.9L28.1,66.7z"/>
</svg>
