<?xml version="1.0" encoding="utf-8"?>
<!-- Generator: Adobe Illustrator 22.0.0, SVG Export Plug-In . SVG Version: 6.00 Build 0)  -->
<svg version="1.1"
	 id="svg8" inkscape:version="0.92.2 (5c3e80d, 2017-08-06)" sodipodi:docname="plateforme.svg" xmlns:cc="http://creativecommons.org/ns#" xmlns:dc="http://purl.org/dc/elements/1.1/" xmlns:inkscape="http://www.inkscape.org/namespaces/inkscape" xmlns:rdf="http://www.w3.org/1999/02/22-rdf-syntax-ns#" xmlns:sodipodi="http://sodipodi.sourceforge.net/DTD/sodipodi-0.dtd" xmlns:svg="http://www.w3.org/2000/svg"
	 xmlns="http://www.w3.org/2000/svg" xmlns:xlink="http://www.w3.org/1999/xlink" x="0px" y="0px" viewBox="0 0 194.9 204.8"
	 style="enable-background:new 0 0 194.9 204.8;" xml:space="preserve">
<style type="text/css">
	.st0{fill:#1E1E1E;}
	.st1{fill:#EAEAEA;}
	.st2{fill:#070707;}
	.st3{fill:#707070;}
	.st4{fill:#A10000;}
	.st5{fill:#780000;}
	.st6{fill:#310000;}
	.st7{fill:#5A5A5A;}
	.st8{fill:#424242;}
	.st9{fill:#292929;}
	.st10{fill:#939393;}
	.st11{fill:#393939;}
	.st12{fill:none;stroke:#000000;stroke-width:0.1;}
	.st13{fill:none;stroke:#000000;stroke-width:0.2646;}
	.st14{fill:#864000;}
	.st15{fill:#4C2400;}
	.st16{fill:#2A1400;}
	.st17{fill:#5DFFEA;}
	.st18{fill:#626262;}
	.st19{fill:#FFFFFF;}
	.st20{font-family:'ArialMT';}
	.st21{font-size:56px;}
</style>
<defs>


		<inkscape:perspective  id="perspective4682" inkscape:persp3d-origin="105 : 99 : 1" inkscape:vp_x="0 : 148.5 : 1" inkscape:vp_y="0 : 1000 : 0" inkscape:vp_z="210 : 148.5 : 1" sodipodi:type="inkscape:persp3d">
		</inkscape:perspective>
</defs>
<sodipodi:namedview  bordercolor="#666666" borderopacity="1.0" id="base" inkscape:current-layer="layer1" inkscape:cx="396.85039" inkscape:cy="615.61985" inkscape:document-units="mm" inkscape:pageopacity="0.0" inkscape:pageshadow="2" inkscape:window-height="986" inkscape:window-maximized="1" inkscape:window-width="1920" inkscape:window-x="-11" inkscape:window-y="-11" inkscape:zoom="2" pagecolor="#ffffff" showgrid="false">
	</sodipodi:namedview>
<g id="layer3" inkscape:groupmode="layer" inkscape:label="Pied">

		<rect id="rect4698-5-9-7" x="58.1" y="126.1" transform="matrix(0.5462 -0.8377 0.8377 0.5462 -86.3371 129.7041)" class="st0" width="36.9" height="36.9"/>

		<rect id="rect4698-5-9-7-7" x="109.3" y="156.5" transform="matrix(0.5462 -0.8377 0.8377 0.5462 -88.5544 186.4053)" class="st1" width="36.9" height="36.9"/>

		<rect id="rect4698-5-9-7-7-4" x="142.7" y="105.4" transform="matrix(0.5462 -0.8377 0.8377 0.5462 -30.566 191.1758)" class="st1" width="36.9" height="36.9"/>
	<path id="path2535" inkscape:connector-curvature="0" class="st2" d="M166.5,149.3l-11-7.2l11-16.8L166.5,149.3z"/>
</g>
<g id="layer2" inkscape:groupmode="layer" inkscape:label="Second Plan">
	<ellipse id="path4812" class="st3" cx="124.8" cy="142" rx="31.8" ry="27.1"/>
	<ellipse id="path4812-0" class="st3" cx="124.5" cy="97" rx="31.8" ry="27.1"/>
	<path id="path4831" inkscape:connector-curvature="0" class="st3" d="M93.1,143.7v-20.2h63.5l0.1,18.7L93.1,143.7z"/>
</g>
<g id="layer1" inkscape:groupmode="layer" inkscape:label="Calque 1">

		<rect id="rect4698" x="69.8" y="52.6" transform="matrix(0.5462 -0.8377 0.8377 0.5462 -31.1752 145.6624)" class="st4" width="98" height="98"/>

		<rect id="rect4698-5" x="69.8" y="59.6" transform="matrix(0.5462 -0.8377 0.8377 0.5462 -37.0538 148.8473)" class="st4" width="98" height="98"/>
	<path id="path4715" inkscape:connector-curvature="0" class="st5" d="M51,115.9v7l82.1,53.5v-7L51,115.9z"/>
	<path id="path4717" inkscape:connector-curvature="0" class="st6" d="M133.1,169.4v7l53.5-82.1v-7L133.1,169.4z"/>
	<ellipse id="path4812-7" class="st3" cx="122.3" cy="98.6" rx="22.4" ry="19.1"/>
	<ellipse id="path4812-0-9" class="st3" cx="122" cy="78.4" rx="22.4" ry="19.1"/>
	<path id="path4831-8" inkscape:connector-curvature="0" class="st3" d="M99.9,120.8v-14.2h44.7l0,13.2L99.9,120.8z"/>

		<rect id="rect4698-2" x="83.6" y="47.1" transform="matrix(0.5462 -0.8377 0.8377 0.5462 -14.796 135.9677)" class="st7" width="69" height="69"/>

		<rect id="rect4698-5-9" x="83.6" y="52.1" transform="matrix(0.5462 -0.8377 0.8377 0.5462 -18.9347 138.21)" class="st7" width="69" height="69"/>
	<path id="path4715-9" inkscape:connector-curvature="0" class="st8" d="M70.3,91.7v4.9l57.8,37.7l0-4.9L70.3,91.7z"/>
	<path id="path4717-7" inkscape:connector-curvature="0" class="st9" d="M128.1,129.4l0,4.9l37.7-57.8v-4.9L128.1,129.4z"/>

		<rect id="rect4719-4" x="71.9" y="105.6" transform="matrix(0.5471 -0.8371 0.8371 0.5471 -57.3922 113.2332)" class="st10" width="8.1" height="8.1"/>
	<path id="path4736-3" inkscape:connector-curvature="0" sodipodi:nodetypes="ccccc" class="st8" d="M70.3,96.6l0,14.2l57.8,37.7
		v-14.2L70.3,96.6z"/>
	<path id="path4738-6-8" inkscape:connector-curvature="0" sodipodi:nodetypes="ccccc" class="st9" d="M128.1,134.3l0,14.2
		l37.7-57.8l0-14.2L128.1,134.3z"/>
	<path id="path2484" inkscape:connector-curvature="0" class="st11" d="M51,149.9l30.9,20.1v-27L51,122.9L51,149.9z"/>
	<path id="path2486" inkscape:connector-curvature="0" class="st11" d="M133.1,200.5l-30.9-20.1v-24l30.9,20.2L133.1,200.5z"/>
	<path id="path2503" inkscape:connector-curvature="0" class="st0" d="M153.3,169.6v-24.1l-20.1,31l0,24L153.3,169.6z"/>
	<path id="path2503-1" inkscape:connector-curvature="0" class="st0" d="M186.7,118.4V94.3l-20.1,31l0,24L186.7,118.4z"/>
	<path id="path2569" inkscape:connector-curvature="0" class="st12" d="M14.5,15.3l4.4-6.9l-0.5,10l5.6-6.2l-2.9,8.1l6.3-5.6
		l-4.1,7.2l6.6-5.4l-4,7.4l6.3-5.4l-3.9,7.1l6.8-5.2l-4.1,7l6.6-5.1l-4.2,7.1l6.4-5.4L35.8,31l6.8-5.4l-4.3,7l6.8-5.3l-4,7.3l7-4.8
		l-4,7l6.9-5.2l-4.4,7.2l6.8-5.3l-4.3,7l6.4-5.6l-4.1,7.2l6.1-5.6l-3.8,7.2l6.3-5.4l-3.5,7.4l6.4-5.5l-3.8,7.5l6.5-5.4l-4.4,7
		l6.6-5.3L64,51.4l6.1-5.5l-3.7,7.2l6.4-5.4l-4.2,7l6.4-5.4l-4,7.1l6.2-5.7l-3.6,7.6l6.3-5.5l-4,7.2l6.3-5.6l-3.9,7.2l6.2-5.5
		l-3.6,7.4l6.2-5.6l-3.9,7.4l6.2-5.8l-3.1,7.9l4.4-6.9l-5.9,5.9l3.4-7.6L82,64.4l3.7-7.4l-6.3,5.6l3.9-7.3l-6.2,5.4l3.7-7.2
		l-6.2,5.6l3.7-7.3l-6.3,5.5l3.8-7.3l-6.1,5.6l4-7.1l-6.3,5.5l4-7.1l-6.3,5.4l3.9-7.2l-6.3,5.3l4.1-7l-6.5,5.3l4-7.1l-6.4,5.4
		l3.5-7.4l-6.3,5.4l3.7-7.3l-6.3,5.5l4-7.1l-6.2,5.4l4-7l-6.4,5.2l4.1-7l-6.6,5.1l4.1-6.8l-7,4.6l4-7l-6.8,5l4-7.1L37,31.6l4.2-7
		L34.7,30l4.2-7.1l-6.5,5.3l4-7.1l-6.7,5.1l4-7.1l-6.2,5.4l3.8-7.2l-6.5,5.2l3.9-7.1l-6.2,5.5l3.1-7.7L19.6,19l1.5-8.9L14.5,15.3z"
		/>
	<path id="path2571" inkscape:connector-curvature="0" class="st12" d="M14.5,15.3v8l5.2-4.2L18,25.6l4.3-4.7l-2.1,6.2l4.4-4.5
		l-1.9,6.3l4.6-4.3l-2.2,6.1l4.5-4.4l-1.9,6.1l4.7-4.1l-2.5,5.5l4.9-3.7l-2.3,5.5l4.6-3.9l-2,5.8l4.7-3.9l-2.5,5.4l5.3-3.4l-2.5,5.2
		l5.4-3.1l-2.2,5.5l4.8-3.6l-2.2,5.4l4.6-3.6l-2.2,5.2l4.5-3.5l-1.9,5.3l4.4-3.4l-1.6,5.5l4.4-3.5L56,51.9l4.2-3.4L58.9,54l3.8-3.8
		l-1,5.6l3.4-3.7l-1.5,5.1l3.8-3.5l-1.5,5l3.8-3.4L68,60.3l4.1-3.2l-1.3,5.1l3.9-3.3l-1.3,5l3.8-3.3l-1.3,5l3.6-3.1l-1,4.9l3.5-3
		l-1.3,4.8l4-2.8l-1,4.9l2.5-3.9l-4,2.8l0.9-4.9l-3.5,3l1.1-4.8l-3.6,2.9l1.1-4.8l-3.8,3.1l1.4-4.8l-3.8,3.1l1.4-4.8l-4,2.9l1.5-4.9
		l-3.8,3.3l1.4-4.9l-3.8,3.3l1.6-4.9l-3.7,3.5l1.3-5.1l-3.6,3.5l0.9-5.4l-3.9,3.3l1.9-4.9l-4.4,3.2l1.7-5.2l-4.4,3.2l1.6-5.3
		l-4.3,3.4l2-5.1l-4.5,3.5l2.2-5.1l-4.6,3.3l2.1-5l-5.1,3.1l2.5-5l-5.6,3l2.6-5.2l-4.7,3.6l2-5.6l-4.6,3.8l2.1-5.4l-4.6,3.6l2.3-5.3
		l-4.7,3.8l2.3-5.9l-4.8,4.1l2.2-5.8l-4.5,4.2l2.1-5.9l-4.6,4.1l2-6.1L19,26.4l2.2-6.1l-4.9,4.1l2.2-6l-3.9,4.9l1.8-6.6L14.5,15.3z"
		/>
	<path id="path2573" inkscape:connector-curvature="0" class="st12" d="M18.9,8.4l-2.7,8.3l4.9-6.6l-2.7,8.3l-3.9-3.1L18.9,8.4z"/>
	<path id="path2575" inkscape:connector-curvature="0" class="st13" d="M18.9,8.4l71.8,52.1l-4.4,6.9l-2.5,3.9l-69.3-48v-8L18.9,8.4
		z"/>
	<path id="path2577" inkscape:connector-curvature="0" class="st13" d="M14.5,15.3l71.8,52.1l4.4-6.9L18.9,8.4L14.5,15.3z"/>

		<rect id="rect2579" x="17.6" y="60.7" transform="matrix(0.5426 -0.84 0.84 0.5426 -46.8872 56.1122)" class="st14" width="20.9" height="20.9"/>

		<rect id="rect2579-9" x="17.6" y="59.2" transform="matrix(0.5426 -0.84 0.84 0.5426 -45.6272 55.4261)" class="st14" width="20.9" height="20.9"/>
	<path id="path2596" inkscape:connector-curvature="0" class="st15" d="M13.6,72.7v1.5l17.6,11.3v-1.5L13.6,72.7z"/>
	<path id="path2598" inkscape:connector-curvature="0" class="st16" d="M42.5,66.5V68L31.2,85.6v-1.5L42.5,66.5z"/>
	<path id="path2600" inkscape:connector-curvature="0" class="st12" d="M13.6,72.7L20,23.5l5,31.7l-4.9-31.6l22.4,43L20,23.5
		l11.2,60.6L20,23.5L13.6,72.7z"/>
	<path id="path2655" inkscape:connector-curvature="0" class="st17" d="M72.1,97.8l0,14.2l54.3,35.5l0-14.2L72.1,97.8z"/>
	<path id="path2661" inkscape:connector-curvature="0" class="st17" d="M129.5,132.3l0,14.2l35.4-54.2V78.1L129.5,132.3z"/>
	<path id="path4715-9-3" inkscape:connector-curvature="0" class="st8" d="M139,131v0.8l9.5,6.2v-0.8L139,131z"/>
	<path id="path2710" inkscape:connector-curvature="0" class="st9" d="M148.5,138v-0.8l0.2-0.4v0.8L148.5,138z"/>
	<path id="path2712" inkscape:connector-curvature="0" class="st18" d="M148.7,136.9l-0.2,0.4L139,131l0.2-0.3L148.7,136.9z"/>
	<path id="path4715-9-3-7" inkscape:connector-curvature="0" class="st8" d="M139.2,129.9v0.8l9.5,6.2v-0.8L139.2,129.9z"/>
	<path id="path2710-3" inkscape:connector-curvature="0" class="st9" d="M148.7,136.9v-0.8l0.2-0.4v0.8L148.7,136.9z"/>
	<path id="path2712-7" inkscape:connector-curvature="0" class="st18" d="M149,135.7l-0.2,0.4l-9.5-6.2l0.2-0.3L149,135.7z"/>
	<path id="path4715-9-3-6" inkscape:connector-curvature="0" class="st8" d="M139.4,128.7v0.8l9.5,6.2v-0.8L139.4,128.7z"/>
	<path id="path2710-9" inkscape:connector-curvature="0" class="st9" d="M148.9,135.7v-0.8l0.2-0.4v0.8L148.9,135.7z"/>
	<path id="path2712-3" inkscape:connector-curvature="0" class="st18" d="M149.2,134.6l-0.2,0.4l-9.5-6.2l0.2-0.3L149.2,134.6z"/>
	<path id="path4715-9-3-3" inkscape:connector-curvature="0" class="st8" d="M139.6,127.6v0.8l9.5,6.2v-0.8L139.6,127.6z"/>
	<path id="path2710-7" inkscape:connector-curvature="0" class="st9" d="M149.2,134.6v-0.8l0.2-0.4v0.8L149.2,134.6z"/>
	<path id="path2712-4" inkscape:connector-curvature="0" class="st18" d="M149.4,133.4l-0.2,0.4l-9.5-6.2l0.2-0.3L149.4,133.4z"/>
	<path id="path4715-9-3-1" inkscape:connector-curvature="0" class="st8" d="M139.9,126.4v0.8l9.5,6.2v-0.8L139.9,126.4z"/>
	<path id="path2710-4" inkscape:connector-curvature="0" class="st9" d="M149.4,133.4v-0.8l0.2-0.4v0.8L149.4,133.4z"/>
	<path id="path2712-0" inkscape:connector-curvature="0" class="st18" d="M149.6,132.3l-0.2,0.4l-9.5-6.2l0.2-0.3L149.6,132.3z"/>
	<path id="path4715-9-3-30" inkscape:connector-curvature="0" class="st8" d="M140.1,125.3v0.8l9.5,6.2v-0.8L140.1,125.3z"/>
	<path id="path2710-1" inkscape:connector-curvature="0" class="st9" d="M149.6,132.3v-0.8l0.2-0.4v0.8L149.6,132.3z"/>
	<path id="path2712-00" inkscape:connector-curvature="0" class="st18" d="M149.9,131.1l-0.2,0.4l-9.5-6.2l0.2-0.3L149.9,131.1z"/>
	<path id="path4715-9-3-9" inkscape:connector-curvature="0" class="st8" d="M140.3,124.1v0.8l9.5,6.2v-0.8L140.3,124.1z"/>
	<path id="path2710-0" inkscape:connector-curvature="0" class="st9" d="M149.8,131.1v-0.8l0.2-0.4v0.8L149.8,131.1z"/>
	<path id="path2712-2" inkscape:connector-curvature="0" class="st18" d="M150.1,130l-0.2,0.4l-9.5-6.2l0.2-0.3L150.1,130z"/>
	<path id="path4715-9-3-76" inkscape:connector-curvature="0" class="st8" d="M140.5,123v0.8l9.5,6.2v-0.8L140.5,123z"/>
	<path id="path2710-5" inkscape:connector-curvature="0" class="st9" d="M150.1,130v-0.8l0.2-0.4v0.8L150.1,130z"/>
	<path id="path2712-5" inkscape:connector-curvature="0" class="st18" d="M150.3,128.8l-0.2,0.4l-9.5-6.2l0.2-0.3L150.3,128.8z"/>
	<path id="path4715-9-3-39" inkscape:connector-curvature="0" class="st8" d="M140.8,121.8v0.8l9.5,6.2V128L140.8,121.8z"/>
	<path id="path2710-2" inkscape:connector-curvature="0" class="st9" d="M150.3,128.8V128l0.2-0.4v0.8L150.3,128.8z"/>
	<path id="path2712-24" inkscape:connector-curvature="0" class="st18" d="M150.5,127.6l-0.2,0.4l-9.5-6.2l0.2-0.3L150.5,127.6z"/>
	<path id="path4715-9-3-8" inkscape:connector-curvature="0" class="st8" d="M141,120.7v0.8l9.5,6.2v-0.8L141,120.7z"/>
	<path id="path2710-19" inkscape:connector-curvature="0" class="st9" d="M150.5,127.7v-0.8l0.2-0.4v0.8L150.5,127.7z"/>
	<path id="path2712-06" inkscape:connector-curvature="0" class="st18" d="M150.8,126.5l-0.2,0.4l-9.5-6.2l0.2-0.3L150.8,126.5z"/>
	<path id="path4715-9-3-5" inkscape:connector-curvature="0" class="st8" d="M141.2,119.5v0.8l9.5,6.2v-0.8L141.2,119.5z"/>
	<path id="path2710-50" inkscape:connector-curvature="0" class="st9" d="M150.7,126.5v-0.8l0.2-0.4v0.8L150.7,126.5z"/>
	<path id="path2712-32" inkscape:connector-curvature="0" class="st18" d="M151,125.3l-0.2,0.4l-9.5-6.2l0.2-0.3L151,125.3z"/>
	<path id="path4715-9-3-95" inkscape:connector-curvature="0" class="st8" d="M141.4,118.3v0.8l9.5,6.2v-0.8L141.4,118.3z"/>
	<path id="path2710-00" inkscape:connector-curvature="0" class="st9" d="M151,125.4v-0.8l0.2-0.4v0.8L151,125.4z"/>
	<path id="path2712-9" inkscape:connector-curvature="0" class="st18" d="M151.2,124.2l-0.2,0.4l-9.5-6.2l0.2-0.3L151.2,124.2z"/>
	<path id="path4715-9-3-4" inkscape:connector-curvature="0" class="st8" d="M141.7,117.2v0.8l9.5,6.2v-0.8L141.7,117.2z"/>
	<path id="path2710-42" inkscape:connector-curvature="0" class="st9" d="M151.2,124.2v-0.8l0.2-0.4v0.8L151.2,124.2z"/>
	<path id="path2712-09" inkscape:connector-curvature="0" class="st18" d="M151.4,123l-0.2,0.4l-9.5-6.2l0.2-0.3L151.4,123z"/>
	<path id="path4715-9-3-89" inkscape:connector-curvature="0" class="st8" d="M141.9,116v0.8l9.5,6.2v-0.8L141.9,116z"/>
	<path id="path2710-18" inkscape:connector-curvature="0" class="st9" d="M151.4,123.1v-0.8l0.2-0.4v0.8L151.4,123.1z"/>
	<path id="path2712-34" inkscape:connector-curvature="0" class="st18" d="M151.7,121.9l-0.2,0.4l-9.5-6.2l0.2-0.3L151.7,121.9z"/>
	<path id="path4715-9-3-0" inkscape:connector-curvature="0" class="st8" d="M142.1,114.9v0.8l9.5,6.2v-0.8L142.1,114.9z"/>
	<path id="path2710-49" inkscape:connector-curvature="0" class="st9" d="M151.6,121.9v-0.8l0.2-0.4v0.8L151.6,121.9z"/>
	<path id="path2712-75" inkscape:connector-curvature="0" class="st18" d="M151.9,120.7l-0.2,0.4l-9.5-6.2l0.2-0.3L151.9,120.7z"/>
	<path id="path4715-9-3-54" inkscape:connector-curvature="0" class="st8" d="M142.3,113.7v0.8l9.5,6.2V120L142.3,113.7z"/>
	<path id="path2710-6" inkscape:connector-curvature="0" class="st9" d="M151.9,120.8V120l0.2-0.4v0.8L151.9,120.8z"/>
	<path id="path2712-6" inkscape:connector-curvature="0" class="st18" d="M152.1,119.6l-0.2,0.4l-9.5-6.2l0.2-0.3L152.1,119.6z"/>
	<path id="path4715-9-3-87" inkscape:connector-curvature="0" class="st8" d="M142.6,112.6v0.8l9.5,6.2v-0.8L142.6,112.6z"/>
	<path id="path2710-61" inkscape:connector-curvature="0" class="st9" d="M152.1,119.6v-0.8l0.2-0.4v0.8L152.1,119.6z"/>
	<path id="path2712-35" inkscape:connector-curvature="0" class="st18" d="M152.3,118.4l-0.2,0.4l-9.5-6.2l0.2-0.3L152.3,118.4z"/>
	<path id="path4715-9-3-04" inkscape:connector-curvature="0" class="st8" d="M142.8,111.4v0.8l9.5,6.2v-0.8L142.8,111.4z"/>
	<path id="path2710-24" inkscape:connector-curvature="0" class="st9" d="M152.3,118.5v-0.8l0.2-0.4v0.8L152.3,118.5z"/>
	<path id="path2712-56" inkscape:connector-curvature="0" class="st18" d="M152.6,117.3l-0.2,0.4l-9.5-6.2l0.2-0.3L152.6,117.3z"/>
	<path id="path4715-9-3-69" inkscape:connector-curvature="0" class="st8" d="M143,110.3v0.8l9.5,6.2v-0.8L143,110.3z"/>
	<path id="path2710-8" inkscape:connector-curvature="0" class="st9" d="M152.5,117.3v-0.8l0.2-0.4v0.8L152.5,117.3z"/>
	<path id="path2712-53" inkscape:connector-curvature="0" class="st18" d="M152.8,116.1l-0.2,0.4l-9.5-6.2l0.2-0.3L152.8,116.1z"/>
	<path id="path4715-9-3-49" inkscape:connector-curvature="0" class="st8" d="M143.2,109.1v0.8l9.5,6.2v-0.8L143.2,109.1z"/>
	<path id="path2710-66" inkscape:connector-curvature="0" class="st9" d="M152.8,116.2v-0.8l0.2-0.4v0.8L152.8,116.2z"/>
	<path id="path2712-22" inkscape:connector-curvature="0" class="st18" d="M153,115l-0.2,0.4l-9.5-6.2l0.2-0.3L153,115z"/>
	<path id="path4715-9-3-15" inkscape:connector-curvature="0" class="st8" d="M143.5,108v0.8l9.5,6.2v-0.8L143.5,108z"/>
	<path id="path2710-78" inkscape:connector-curvature="0" class="st9" d="M153,115v-0.8l0.2-0.4v0.8L153,115z"/>
	<path id="path2712-8" inkscape:connector-curvature="0" class="st18" d="M153.2,113.8l-0.2,0.4l-9.5-6.2l0.2-0.3L153.2,113.8z"/>
	<path id="path4715-9-3-2" inkscape:connector-curvature="0" class="st8" d="M143.7,106.8v0.8l9.5,6.2V113L143.7,106.8z"/>
	<path id="path2710-60" inkscape:connector-curvature="0" class="st9" d="M153.2,113.9V113l0.2-0.4v0.8L153.2,113.9z"/>
	<path id="path2712-40" inkscape:connector-curvature="0" class="st18" d="M153.5,112.7l-0.2,0.4l-9.5-6.2l0.2-0.3L153.5,112.7z"/>
	<path id="path4715-9-3-24" inkscape:connector-curvature="0" class="st8" d="M143.9,105.7v0.8l9.5,6.2v-0.8L143.9,105.7z"/>
	<path id="path2710-48" inkscape:connector-curvature="0" class="st9" d="M153.4,112.7v-0.8l0.2-0.4v0.8L153.4,112.7z"/>
	<path id="path2712-64" inkscape:connector-curvature="0" class="st18" d="M153.7,111.5l-0.2,0.4l-9.5-6.2l0.2-0.3L153.7,111.5z"/>
	<path id="path4715-9-3-17" inkscape:connector-curvature="0" class="st8" d="M144.1,104.5v0.8l9.5,6.2v-0.8L144.1,104.5z"/>
	<path id="path2710-04" inkscape:connector-curvature="0" class="st9" d="M153.7,111.6v-0.8l0.2-0.4v0.8L153.7,111.6z"/>
	<path id="path2712-88" inkscape:connector-curvature="0" class="st18" d="M153.9,110.4l-0.2,0.4l-9.5-6.2l0.2-0.3L153.9,110.4z"/>
	<path id="path2955" inkscape:connector-curvature="0" class="st12" d="M148.5,138l5.4-27.7v-2.7l-5.3,26.2L148.5,138z"/>
	<path id="path2957" inkscape:connector-curvature="0" class="st12" d="M153.9,107.7v2.7l-9.6-6.2v-2.1L153.9,107.7z"/>
	<text transform="matrix(0.8367 0.5476 -0.5476 0.8367 89.8392 84.5334)" class="st19 st20 st21">H</text>
	<path id="path2963" inkscape:connector-curvature="0" class="st12" d="M144.4,104.2l21.5-32.6v-2.1l-21.5,32.6V104.2z"/>
	<path id="path2965" inkscape:connector-curvature="0" class="st12" d="M140.4,110.4l-12.3,18.9v-2.7l12.3-19.1L140.4,110.4z"/>
	<path id="path2963-1" inkscape:connector-curvature="0" sodipodi:nodetypes="ccccc" class="st12" d="M70.3,91.7L108,33.9v-2.1
		L70.3,89.6V91.7z"/>
	<path id="path2982" inkscape:connector-curvature="0" class="st12" d="M70.3,91.7l57.8,37.7v-2.7L70.3,89.6V91.7z"/>
	<path id="path2984" inkscape:connector-curvature="0" class="st12" d="M165.8,69.5L108,31.8v2.1l57.8,37.7V69.5z"/>
	<path id="path2982-0" inkscape:connector-curvature="0" sodipodi:nodetypes="ccccc" class="st12" d="M51,115.9l82.2,53.6v-2.7
		l-82.2-53V115.9z"/>
	<path id="path2965-8" inkscape:connector-curvature="0" sodipodi:nodetypes="ccccc" class="st12" d="M186.7,87.3l-53.5,82.1v-2.7
		l53.6-82.3L186.7,87.3z"/>
	<path id="path3031" inkscape:connector-curvature="0" class="st12" d="M186.7,84.5l-20.9-12.9l0.1,2.2l20.8,13.5L186.7,84.5z"/>
	<path id="path2963-1-0" inkscape:connector-curvature="0" sodipodi:nodetypes="ccccc" class="st12" d="M51,115.9l53.5-82.1v-2.1
		L51,113.8V115.9z"/>
	<path id="path3048" inkscape:connector-curvature="0" class="st12" d="M104.6,31.7l3.5,2.2l-1,1.5l-2.5-1.7L104.6,31.7z"/>
</g>
</svg>
