<?xml version="1.0" encoding="utf-8"?>
<!-- Generator: Adobe Illustrator 22.0.0, SVG Export Plug-In . SVG Version: 6.00 Build 0)  -->
<svg version="1.1"
	 id="svg8" inkscape:version="0.92.2 (5c3e80d, 2017-08-06)" sodipodi:docname="bateau.svg" xmlns:cc="http://creativecommons.org/ns#" xmlns:dc="http://purl.org/dc/elements/1.1/" xmlns:inkscape="http://www.inkscape.org/namespaces/inkscape" xmlns:osb="http://www.openswatchbook.org/uri/2009/osb" xmlns:rdf="http://www.w3.org/1999/02/22-rdf-syntax-ns#" xmlns:sodipodi="http://sodipodi.sourceforge.net/DTD/sodipodi-0.dtd" xmlns:svg="http://www.w3.org/2000/svg"
	 xmlns="http://www.w3.org/2000/svg" xmlns:xlink="http://www.w3.org/1999/xlink" x="0px" y="0px" viewBox="0 0 364.8 286.9"
	 style="enable-background:new 0 0 364.8 286.9;" xml:space="preserve">
<style type="text/css">
	.st0{fill:#626262;}
	.st1{fill:#4D4D4D;}
	.st2{fill:#686868;}
	.st3{fill:#5E5E5E;}
	.st4{fill:#808080;}
	.st5{fill:#616161;}
	.st6{fill:#A1A1A1;}
	.st7{fill:#6C6C6C;}
	.st8{fill:#545454;}
	.st9{fill:#434343;}
	.st10{fill:none;stroke:#000000;stroke-width:0.1848;}
	.st11{fill:#585858;}
	.st12{fill:#6F6F6F;}
	.st13{fill:#666666;}
	.st14{fill:#8D8D8D;}
	.st15{fill:none;stroke:#000000;stroke-width:0.1845;}
	.st16{fill:#6D6D6D;}
	.st17{fill:#5CA6CB;stroke:#383838;stroke-width:0.1484;}
	.st18{fill:#347DA1;stroke:#383838;stroke-width:0.1763;}
	.st19{fill:#3A8EB7;stroke:#383838;stroke-width:0.1139;}
	.st20{fill:#499CC5;stroke:#383838;stroke-width:0.1079;}
	.st21{fill:#B1B1B1;}
	.st22{font-family:'ArialMT';}
	.st23{font-size:69.444px;}
</style>
<sodipodi:namedview  bordercolor="#666666" borderopacity="1.0" id="base" inkscape:current-layer="layer3" inkscape:cx="334.80492" inkscape:cy="653.40898" inkscape:document-units="mm" inkscape:pageopacity="0.0" inkscape:pageshadow="2" inkscape:window-height="986" inkscape:window-maximized="1" inkscape:window-width="1920" inkscape:window-x="-11" inkscape:window-y="-11" inkscape:zoom="1.4142136" pagecolor="#ffffff" showgrid="false">
	</sodipodi:namedview>
<g id="layer1" inkscape:groupmode="layer" inkscape:label="Calque 1">
	<path id="path3605" inkscape:connector-curvature="0" sodipodi:nodetypes="ccccc" class="st0" d="M314.1,143.6l49.2,56.9
		l-21.1,42.8l-49.7-55L314.1,143.6z"/>
	<path id="path3607" inkscape:connector-curvature="0" sodipodi:nodetypes="ccccc" class="st1" d="M342.1,243.4l21.1-42.8V227
		L341.8,268L342.1,243.4z"/>
	<path id="path3609" inkscape:connector-curvature="0" class="st2" d="M342.1,243.4l-53.7,14.4l4-69.4L342.1,243.4z"/>
	<path id="path3611" inkscape:connector-curvature="0" sodipodi:nodetypes="ccccc" class="st3" d="M288.4,257.7V281l53.4-13
		l0.3-24.7L288.4,257.7z"/>
	<path id="path3615" inkscape:connector-curvature="0" sodipodi:nodetypes="ccccc" class="st4" d="M24.5,59.9l267.9,128.4l-4,69.4
		L22.3,132.4L24.5,59.9z"/>
	<path id="path3617" inkscape:connector-curvature="0" sodipodi:nodetypes="ccccc" class="st5" d="M22.3,132.4l266.1,125.3V281
		L23.1,149.1L22.3,132.4z"/>
	<path id="path3619" inkscape:connector-curvature="0" sodipodi:nodetypes="ccccc" class="st6" d="M24.5,59.9l267.9,128.4l21.6-44.7
		L48.7,16.3L24.5,59.9z"/>
	<path id="path3621" inkscape:connector-curvature="0" class="st7" d="M24.5,59.9L5,103.6l17.3,28.8L24.5,59.9z"/>
	<path id="path3623" inkscape:connector-curvature="0" sodipodi:nodetypes="ccccc" class="st8" d="M23.1,149.1l-0.8-16.7L5,103.6
		v14.2L23.1,149.1z"/>
	<path id="path3629" inkscape:connector-curvature="0" class="st8" d="M48.7,16.3L24.5,59.9L5,103.6l12.2-35.9L48.7,16.3z"/>
	<path id="path3631" inkscape:connector-curvature="0" class="st9" d="M363.2,200.5l-18.5-26.9l-30.7-29.9L363.2,200.5z"/>
	<path id="path3633" inkscape:connector-curvature="0" sodipodi:nodetypes="ccccc" class="st10" d="M314.1,143.6v-5.5L48.7,11.1v5.1
		L314.1,143.6z"/>
	<ellipse id="path3678-0-5" class="st11" cx="189.9" cy="43.8" rx="6.3" ry="9.6"/>
	<path id="path3712-0" inkscape:connector-curvature="0" class="st11" d="M189.7,34.3l-20.4,22.9l0.3,16.2l6.6-0.3l15.3-20
		L189.7,34.3z"/>
	<ellipse id="path3678-6" class="st12" cx="172.3" cy="65.5" rx="6.3" ry="9.6"/>

		<ellipse id="path3635" transform="matrix(0.2815 -0.9596 0.9596 0.2815 25.7304 224.5009)" class="st13" cx="162.8" cy="95.1" rx="18.5" ry="32"/>
	<path id="path3661" inkscape:connector-curvature="0" class="st13" d="M131.8,55v34l61.9,14.3V69L131.8,55z"/>

		<ellipse id="path3635-3" transform="matrix(0.2815 -0.9596 0.9596 0.2815 57.4432 200.5919)" class="st14" cx="162.7" cy="61.9" rx="18.5" ry="32"/>
	<ellipse id="path3678-0" class="st11" cx="145.5" cy="88" rx="6.3" ry="9.6"/>

		<ellipse id="path3635-6" transform="matrix(0.2792 -0.9602 0.9602 0.2792 56.9282 183.7953)" class="st13" cx="150.9" cy="54" rx="7.3" ry="12.6"/>
	<path id="path3661-1" inkscape:connector-curvature="0" sodipodi:nodetypes="ccccc" class="st13" d="M138.7,27.7v23.9l24.5,5.6v-24
		L138.7,27.7z"/>

		<ellipse id="path3635-3-2" transform="matrix(0.2792 -0.9602 0.9602 0.2792 79.4347 166.8165)" class="st14" cx="150.8" cy="30.5" rx="7.3" ry="12.6"/>
	<path id="path3850" inkscape:connector-curvature="0" class="st15" d="M292.4,182.8l21.6-44.7v5.5l-21.6,44.7V182.8z"/>

		<ellipse id="path3635-3-2-1" transform="matrix(0.2792 -0.9602 0.9602 0.2792 38.2324 304.0697)" class="st14" cx="221.7" cy="126.6" rx="7.3" ry="12.6"/>

		<ellipse id="path3635-3-2-1-3" transform="matrix(0.2165 -0.9763 0.9763 0.2165 50.7226 314.8341)" class="st16" cx="221.5" cy="125.8" rx="4.9" ry="9.7"/>
	<path id="path3633-8" inkscape:connector-curvature="0" sodipodi:nodetypes="ccccc" class="st10" d="M292.4,188.3v-5.5L24.5,54.8
		v5.1L292.4,188.3z"/>
	<path id="path3852" inkscape:connector-curvature="0" class="st15" d="M48.7,11.1L24.5,54.8v5.1l24.3-43.6V11.1z"/>
	<ellipse id="path3918-9" class="st17" cx="60.6" cy="112.5" rx="6.6" ry="12.2"/>
	<ellipse id="path3918-8" class="st17" cx="196.9" cy="178.1" rx="6.6" ry="12.2"/>
	<ellipse id="path3918-90" class="st17" cx="249.3" cy="203" rx="6.6" ry="12.2"/>

		<ellipse id="path3918-98" transform="matrix(0.5055 -0.8628 0.8628 0.5055 -1.6194 376.9852)" class="st18" cx="328.1" cy="189.9" rx="14.5" ry="7.8"/>

		<ellipse id="path3918-70" transform="matrix(0.9477 -0.319 0.319 0.9477 -54.9088 108.7662)" class="st19" cx="304.6" cy="222" rx="5" ry="9.5"/>

		<ellipse id="path3918-3" transform="matrix(0.2874 -0.9578 0.9578 0.2874 -78.2548 81.8007)" class="st20" cx="15.8" cy="93.5" rx="9.6" ry="4.4"/>
	<text transform="matrix(0.8949 0.4462 -0.4462 0.8949 78.7365 147.267)" class="st21 st22 st23">2</text>
	<text transform="matrix(0.8949 0.4462 -0.4462 0.8949 117.7955 165.6578)" class="st21 st22 st23">4</text>
	<path id="path3712" inkscape:connector-curvature="0" class="st11" d="M143.1,78.9l-20.4,22.9l0.3,16.2l6.6-0.3l15.3-20L143.1,78.9
		z"/>
	<ellipse id="path3678" class="st12" cx="125.7" cy="110.2" rx="6.3" ry="9.6"/>
</g>
</svg>
