<svg id="gold_colony24" data-name="gold_colony24" xmlns="http://www.w3.org/2000/svg" viewBox="0 0 489.6 411.44"><title>gold_colony24</title><path d="M437,319.13H410.36L360.68,220.7H330.11l-45.7-90.55H207.19l-45.7,90.55H130.93L81.25,319.13H54.66L1,425.44H490.6ZM169.53,393.76,135.84,327h67.38Zm76.27-98.43-29.71-58.88h59.43Zm76.27,98.43L288.38,327h67.39ZM262.86,71.09H227.43V14h35.43Zm63.54,28L296.2,80.56,327.29,29.9l30.2,18.54Zm49.18,55.53-18-30.52,44.91-26.49,18,30.53ZM166.09,99.1,135,48.44,165.2,29.9l31.09,50.67Zm-49.17,55.52L72,128.13,90,97.61l44.91,26.49Zm0,0" transform="translate(-1 -14)"/></svg>
