<?xml version="1.0" encoding="UTF-8"?>
<svg enable-background="new 0 0 1271.7 682.9" version="1.1" viewBox="0 0 1271.7 682.9" xml:space="preserve" xmlns="http://www.w3.org/2000/svg">
<style type="text/css">
	.st0{fill:#FFFE9E;}
	.st1{fill:#BAFF65;}
	.st2{fill:#1CECFF;}
	.st3{fill:#FFFE9F;}
	.st4{fill:#CFCFCF;}
	.st5{fill:#A8A8A8;}
	.st6{fill:#F0F0F0;}
	.st7{fill:#E1E1E1;}
	.st8{fill:#C5C5C5;}
	.st9{fill:#E0E0E0;}
	.st10{fill:#F4F4F4;}
	.st11{fill:#E4E4E4;}
	.st12{fill:#BFBFBF;}
	.st13{fill:#C6C6C6;}
	.st14{fill:#C7C7C7;}
	.st15{fill:#E5E5E5;}
	.st16{fill:#DBDBDB;}
	.st17{fill:#C4C4C4;}
	.st18{fill:#D3D3D3;}
	.st19{fill:#AEAEAE;}
	.st20{fill:#B8B8B8;}
	.st21{fill:#B7B7B7;}
	.st22{fill:#AAAAAA;}
	.st23{fill:#D6D6D6;}
	.st24{fill:#D5D5D5;}
	.st25{fill:#CECECE;}
	.st26{fill:#CACACA;}
	.st27{fill:#C0C0BC;}
	.st28{fill:#A4A4A4;}
	.st29{fill:#09EAFF;}
	.st30{fill:#33F518;}
	.st31{fill:#985B07;}
	.st32{fill:#995C08;}
	.st33{fill:#2ADA09;}
	.st34{fill:#3BF518;}
	.st35{fill:#189F06;}
	.st36{fill:#24DF0A;}
	.st37{fill:#189E06;}
	.st38{fill:#178D06;}
	.st39{fill:#20C609;}
	.st40{fill:#189907;}
	.st41{fill:#106605;}
	.st42{fill:#158206;}
	.st43{fill:#4A2C04;}
	.st44{fill:#6D4206;}
	.st45{fill:#7D4907;}
	.st46{fill:#583305;}
	.st47{fill:#814B07;}
	.st48{fill:#985D08;}
	.st49{fill:#5BF745;}
	.st50{fill:#1AA408;}
	.st51{fill:#32F518;}
	.st52{fill:#24E30A;}
	.st53{fill:#1CB308;}
	.st54{fill:#127005;}
	.st55{fill:#158305;}
	.st56{fill:#2FF414;}
	.st57{fill:#24DE0A;}
	.st58{fill:#37F51C;}
	.st59{fill:#1CAE08;}
	.st60{fill:#52F73B;}
	.st61{fill:#25E90A;}
	.st62{fill:#6D4305;}
	.st63{fill:#462B03;}
	.st64{fill:#814F06;}
	.st65{fill:#7B7B7B;}
	.st66{fill:#444444;}
	.st67{fill:#282828;}
	.st68{fill:#202020;}
	.st69{fill:#323232;}
	.st70{fill:#3E3E3E;}
	.st71{fill:#828282;}
	.st72{fill:#686868;}
	.st73{fill:#6E6E6E;}
	.st74{fill:#515151;}
	.st75{fill:#565656;}
	.st76{fill:#696969;}
	.st77{fill:#707070;}
	.st78{fill:#252525;}
	.st79{fill:#3A3A3A;}
	.st80{fill:#5F5F5F;}
	.st81{fill:#757575;}
	.st82{fill:#595959;}
	.st83{fill:#FDF000;}
	.st84{fill:#FFF639;}
	.st85{fill:#FFDD13;}
	.st86{fill:#FFF516;}
	.st87{fill:#FFF436;}
	.st88{fill:#FFF519;}
	.st89{fill:#FFF314;}
	.st90{fill:#FFF62D;}
	.st91{fill:#FFF52D;}
	.st92{fill:#FFF40E;}
	.st93{fill:#F9EF00;}
	.st94{fill:#FFF630;}
	.st95{fill:#FFF533;}
	.st96{fill:#FFF646;}
	.st97{fill:#FFF53D;}
	.st98{fill:#FFF626;}
	.st99{fill:#FFF20C;}
	.st100{fill:#FFF61C;}
	.st101{fill:#FFFFFF;}
	.st102{fill:#D2D2D2;}
	.st103{fill:#646464;}
	.st104{fill:#EDEDED;}
</style>
	<path class="st0" d="m1225.9 597.4l-126.7 58.6-170.1-10.2-134.5 10.2-150.4-15.3-102.9 15.3-118.7-5.1-59.4-43.3v-33.1l-142.5-73.9-98.9-12.7-55.4-53.5v-48.4l-55.4-63.7 27.7-51 91-28 146.4-22.9 110.8-28h142.5l106.8-28 114.8-7.6 95 22.9 63.3 43.3 23.7 51 59.4 30.6 110.8 25.5 87.1 53.5 23.7 48.4 39.6 43.3 4 48.4-31.7 73.7z"/>
	<path class="st0" d="m1256.9 498.6l0.7 24.9-2.4-20.8 1.7-4.1z"/>
	<path class="st0" d="m11.8 311.6l-0.7 10.7 3.9-6.9-3.2-3.8z"/>
	<path class="st1" d="m1225.2 567.3l-126.5 54.5-170-9.5-134.4 9.5-150.2-14.2-102.8 14.2-118.4-4.8-59.3-40.3v-30.7l-142.3-68.7-98.8-11.8-55.3-49.7v-45l-55.3-59.2 27.7-47.4 90.9-26 146.2-21.3 110.7-26h142.3l106.7-26 114.6-7.1 94.9 21.3 63.2 40.3 23.7 47.4 59.2 28.2 110.7 23.7 87 49.7 23.7 45 39.5 40.3 4 45-31.7 68.6z"/>
	<path class="st2" d="m363.6 546l67.1-25.1-20.2-2.7 57.8-22.8-14.8-9.5 66.3-27.6 31.3-5.3 31.8-28.1-15.9-1.6 37.1-22.3h-13.3l24.9-15.9h-15.4l39.2-21.2-12.7-12.2 22.3-9.5-13.3-4.2 38.7-13.8-25.5-52.5-32.9 1.1 18 43-57.1 29.1 11.1 13.8-35 22.8 15.9 1.1-21.1 16.4h13.8l-33.9 23.9 13.8 1.6-14.8 12.7-33.9 6.4-94.9 40.3 9 6.4-47.2 22.3 16.4 2.7-43.6 15.7-2.1 28.1 3.7 6.9 20.6 11.3 8.8-0.6v-30.7z"/>
	<path class="st0" d="m332.6 531l43.4-12.3 0.1-3.6-43.5 15.9z"/>
	<path class="st0" d="m362.6 512.9l44.3-20.3-0.1-2.4-47.2 22.3 3 0.4z"/>
	<path class="st3" d="m397.8 483.8l94.9-40.3v2.7l-92 39.6-2.9-2z"/>
	<path class="st3" d="m492.7 443.5l33.9-6.4v2.4l-33.9 6.7v-2.7z"/>
	<path class="st3" d="m526.7 437.1l14.8-12.7v2.6l-14.8 12.5v-2.4z"/>
	<path class="st3" d="m527.7 422.8l33.9-23.9v2.5l-30.8 21.8-3.1-0.4z"/>
	<path class="st3" d="m547.9 399l21.2-16.4v2.8l-17.6 13.6h-3.6z"/>
	<path class="st3" d="m553.2 381.5l35-22.8v3.2l-29.9 19.9-5.1-0.3z"/>
	<path class="st3" d="m577 344.9l57.3-29.2v3.1l-55.3 28.5-2-2.4z"/>
	<path class="st3" d="m649.2 342.2l-13.3-4.2v2.4l10.1 3.2 3.2-1.4z"/>
	<path class="st3" d="m626.9 351.8v3.8l10.2 9.8 2.5-1.3-12.7-12.3z"/>
	<path class="st3" d="m615.8 385.2h-15.4v2.4h11.7l3.7-2.4z"/>
	<path class="st3" d="m604.1 401.1h-13.3v2.4h9.2l4.1-2.4z"/>
	<path class="st3" d="m567 423.4v3l12.7 1.4 3.2-2.8-15.9-1.6z"/>
	<path class="st3" d="m468.3 495.5l-14.8-9.5v3.2l11.3 7.7 3.5-1.4z"/>
	<path class="st3" d="m430.7 520.9l-20.2-2.7v2.4l17.6 1.2 2.6-0.9z"/>
	<path class="st3" d="m674.6 324.2l-25.5-52.5v4.6l23 48.8 2.5-0.9z"/>
	<path class="st4" d="m358.7 250.2l68.6-123.9 58-45 22.9-9.6 38.8-53.4 32.7-7.9 29.1 40.3 54.7-14 5.3 14 7.9-10.5 29.3-12.3 37 84.1 38.8 15.8 52.1 127-475.2-4.6z"/>
	<ellipse class="st5" cx="595.2" cy="252.8" rx="238.9" ry="29.2"/>
	<path class="st6" d="M560,21.9l-12.9-3.6l32.7-7.9L560,21.9z"/>
	<path class="st7" d="m508.3 71.7l-13.8 10.4-9.2-0.7 23-9.7z"/>
	<path class="st8" d="m706 27.9l-15.5 15.7-13.7-3.4 29.2-12.3z"/>
	<path class="st9" d="m663.6 36.7l-47.2 24.5-7.5-10.5 54.7-14z"/>
	<path class="st10" d="m508.3 71.7l51.7-49.8-12.9-3.6-38.8 53.4z"/>
	<path class="st11" d="m560 21.9l-7.5 100.4-44.2-50.6 51.7-49.8z"/>
	<path class="st12" d="m616.5 61.2l-64 61.1 7.5-100.4 19.8-11.5 36.7 50.8z"/>
	<path class="st13" d="m663.6 36.7l7.9 141.8-55-117.3 47.1-24.5z"/>
	<path class="st14" d="m552.5 122.3l64-61.1 55 117.3-119-56.2z"/>
	<path class="st15" d="m485.4 81.3l-40.8 48.9-17.2-3.9 58-45z"/>
	<path class="st16" d="m494.5 82.1l-50 48.2 40.8-48.9 9.2 0.7z"/>
	<path class="st17" d="m508.3 71.7l44.2 50.6-61 29.2 16.8-79.8z"/>
	<path class="st18" d="m491.4 151.5l-46.9-21.2 50-48.2 13.8-10.4-16.9 79.8z"/>
	<path class="st19" d="m663.6 36.7l84.9 237.4-77-95.6-7.9-141.8z"/>
	<path class="st20" d="m690.5 43.6l58 230.5-79.6-223.4 21.6-7.1z"/>
	<path class="st12" d="m676.9 40.2l-7.9 10.5 21.6-7.1-13.7-3.4z"/>
	<path class="st21" d="M743,112l5.4,162.1l33.4-146.3L743,112z"/>
	<path class="st22" d="m706 27.9l37 84.1 5.4 162.1-58-230.5 15.6-15.7z"/>
	<path class="st23" d="m491.4 151.5l180 27-119-56.2-61 29.2z"/>
	<path class="st24" d="m444.6 130.3l-85.9 119.9 68.6-123.9 17.3 4z"/>
	<path class="st25" d="m358.7 250.2l132.8-98.7-46.9-21.2-85.9 119.9z"/>
	<path class="st26" d="m671.5 178.5l-312.8 71.7 132.8-98.7 180 27z"/>
	<path class="st27" d="m358.7 250.2l389.8 23.9-77-95.6-312.8 71.7z"/>
	<path class="st28" d="m781.9 127.8l-33.4 146.3 85.5-19.3-52.1-127z"/>
	<path class="st29" d="m620.2 282v-27.2h31.2v26.5l-11.4 2.9h-13.2l-6.6-2.2z"/>
	<ellipse class="st29" cx="635.8" cy="254.4" rx="15.7" ry="7"/>
	<g transform="matrix(.3019 0 0 .3019 143.91 70.371)">
			<path class="st30" d="m2527 590.4v106.1l-118.1 68.2-26.5-6.1-54.6-54.6v-150l64.3-28.9 110.4 21.4 24.5 43.9z"/>
			<path class="st31" d="m2397.1 761.9v90h20.6v-92.3l-8.8 5.1-11.8-2.8z"/>
			<path class="st32" d="m2417.7 781.5l20.3-33.7 9.8-5.6-30.2 52.3 0.1-13z"/>
			<ellipse class="st32" cx="2403.1" cy="852.8" rx="14.6" ry="10"/>
			<path class="st33" d="m2467 582.9l-75-57.9 110.4 21.4-35.4 36.5z"/>
			<path class="st34" d="m2327.7 554l139.3 28.9-75-57.9-64.3 29z"/>
			<path class="st35" d="m2502.4 546.5l24.6 43.9-60-7.5 35.4-36.4z"/>
			<path class="st36" d="m2467 582.9l-60.5 129.1-78.8-158 139.3 28.9z"/>
			<path class="st37" d="m2527 696.5l-120.5 15.5 60.5-129.1 60 113.6z"/>
			<path class="st38" d="m2527 590.4v106.1l-60-113.6 60 7.5z"/>
			<path class="st39" d="m2327.7 704l78.8 8-78.8-158v150z"/>
			<path class="st40" d="m2382.4 758.6l24.1-46.6-78.8-8 54.7 54.6z"/>
			<path class="st41" d="m2527 696.5l-118.1 68.2-2.4-52.7 120.5-15.5z"/>
			<path class="st42" d="m2382.4 758.6l26.5 6.1-2.4-52.7-24.1 46.6z"/>
			<path class="st43" d="m2408.9 764.7l8.8 16.8v-21.9l-8.8 5.1z"/>
			<path class="st44" d="m2408.9 764.7l8.8 87.2v-70.4l-8.8-16.8z"/>
			<path class="st45" d="m2397.1 761.9l20.6 90-8.8-87.2-11.8-2.8z"/>
			<path class="st46" d="m2438 747.8l-20.3 46.7 0.1-13 20.2-33.7z"/>
			<path class="st47" d="m2417.6 794.5l30.2-52.3-9.8 5.6-20.4 46.7z"/>
	</g>
	<g transform="matrix(.26212 0 0 .26212 134.95 82.609)">
			<path class="st30" d="m2572.3 663.3l60.1-27 97.6-7.5 66.1 10.5 16.5 45.1-1.5 88.6-33 54.1-51.1 16.5-75.1-1.5-48.1-49.6-15-64.6-16.5-64.6z"/>
			<path class="st48" d="m2693.2 842.5v111.5h28.4v-110.5l-28.4-1z"/>
			<ellipse class="st48" cx="2706.2" cy="953.5" rx="15.4" ry="10.1"/>
			<path class="st49" d="m2632.4 636.3l35.3 21.3-95.4 5.7 60.1-27z"/>
			<path class="st50" d="m2747.6 704.6l48.5-65.3 16.5 45.1-65 20.2z"/>
			<path class="st51" d="m2667.6 657.6l62.3-28.8-97.6 7.5 35.3 21.3z"/>
			<path class="st52" d="m2667.6 657.6l128.4-18.3-66.1-10.5-62.3 28.8z"/>
			<path class="st53" d="m2667.6 657.6l79.9 47 48.5-65.3-128.4 18.3z"/>
			<path class="st54" d="m2747.6 704.6l63.5 68.4 1.5-88.6-65 20.2z"/>
			<path class="st55" d="m2778 827.1l-30.5-122.4 63.5 68.4-33 54z"/>
			<path class="st56" d="m2658.3 734.6l-54.5 57.9 48.1 49.6 6.4-107.5z"/>
			<path class="st57" d="m2658.3 734.6l68.6 108.9-75.1-1.5 6.5-107.4z"/>
			<path class="st58" d="m2658.3 734.6l89.2-30-20.5 139-68.7-109z"/>
			<path class="st59" d="m2747.6 704.6l-20.6 139 51.1-16.5-30.5-122.5z"/>
			<path class="st60" d="m2603.8 792.5l-31.5-129.2 86.1 71.3-54.6 57.9z"/>
			<path class="st61" d="m2658.3 734.6l9.3-77 79.9 47-89.2 30z"/>
			<path class="st30" d="m2572.3 663.3l95.4-5.7-9.3 77-86.1-71.3z"/>
			<path class="st62" d="m2702.6 843.1l19 110.9v-110.5l-19-0.4z"/>
			<path class="st63" d="m2721.5 843.5l0.1 61.1-9.2-61.3 9.1 0.2z"/>
			<path class="st64" d="m2694.5 842.9l27.1 111-19-110.9-8.1-0.1z"/>
	</g>
	<g transform="matrix(.59166 0 0 .59166 32.314 51.451)">
			<path class="st65" d="m1170.4 579.7l-21.2-19.7-35.6-3.8-28.8 6.1-3.4 6.8h15.7l-17.4 3.4-1.7 3.4 11.4 7.6 21.2 6.8 51.5 2.3 8.3-12.9z"/>
			<path class="st66" d="m1170.4 579.7l0.6 24.6-5.2 8.9-54.9-2.9-22.3-8.1-10.6-26.3 11.4 7.6 21.2 6.8 51.5 2.3 8.3-12.9z"/>
			<path class="st67" d="m1081.3 569.1h15.7l-15.6 3.1-0.1-3.1z"/>
			<path class="st68" d="m1170.4 579.7l-8.3 12.9 3.7 20.7 5.2-8.9-0.6-24.7z"/>
			<path class="st69" d="m1110.5 590.3l0.4 20.1 54.9 2.9-3.7-20.7-51.6-2.3z"/>
			<path class="st70" d="m1089.3 583.5l-0.8 18.8 22.3 8.1-0.4-20.1-21.1-6.8z"/>
	</g>
	<g transform="matrix(.43286 0 0 .43286 76.948 55.13)">
			<path class="st65" d="m1621.5 468l-129.1-7.5-32.1 54.6-53 14.5v32.1l33.8 31.6h122.1l85.2-43.4v-45.5l-26.9-36.4z"/>
			<path class="st71" d="m1492.4 460.5l-13.9 65.4-18.2-10.7 32.1-54.7z"/>
			<path class="st72" d="m1551.3 505.8l-58.9-45.3-13.9 65.4 72.8-20.1z"/>
			<path class="st73" d="m1551.3 505.8l70.2-37.8-129.1-7.5 58.9 45.3z"/>
			<path class="st74" d="m1648.3 504.4l-97 1.3 70.2-37.8 26.8 36.5z"/>
			<path class="st75" d="m1551.3 505.8l20.1 59.2 76.9-60.5-97 1.3z"/>
			<path class="st76" d="m1478.5 525.8l-37.5 67.5 130.4-28.4-92.9-39.1z"/>
			<path class="st77" d="m1407.2 529.6l53-14.5 18.2 10.7-71.2 3.8z"/>
			<path class="st78" d="m1648.3 550l-76.9 15-8.3 28.4 85.2-43.4z"/>
			<path class="st79" d="m1571.4 565l-130.4 28.3h122.1l8.3-28.3z"/>
			<path class="st79" d="m1648.3 504.4l-76.9 60.5 76.9-15v-45.5z"/>
			<path class="st80" d="m1478.5 525.8l-37.5 67.5-33.8-31.6 71.3-35.9z"/>
			<path class="st81" d="m1571.4 565l-92.9-39.1 72.9-20.1 20 59.2z"/>
			<path class="st82" d="m1478.5 525.8l-71.3 35.9v-32.1l71.3-3.8z"/>
	</g>
	<g transform="matrix(.3019 0 0 .3019 153.49 80.013)">
			<path class="st30" d="m2585.2 649v106.1l-118.1 68.2-26.5-6.1-54.6-54.6v-150l64.3-28.9 110.4 21.4 24.5 43.9z"/>
			<path class="st31" d="m2455.3 820.4v90h20.6v-92.3l-8.8 5.1-11.8-2.8z"/>
			<path class="st32" d="m2475.9 840.1l20.3-33.7 9.8-5.6-30.2 52.3 0.1-13z"/>
			<ellipse class="st32" cx="2461.3" cy="911.4" rx="14.6" ry="10"/>
			<path class="st33" d="m2525.2 641.5l-75-57.9 110.4 21.4-35.4 36.5z"/>
			<path class="st34" d="m2385.9 612.6l139.3 28.9-75-57.9-64.3 29z"/>
			<path class="st35" d="m2560.6 605.1l24.6 43.9-60-7.5 35.4-36.4z"/>
			<path class="st36" d="m2525.2 641.5l-60.5 129.1-78.8-158 139.3 28.9z"/>
			<path class="st37" d="m2585.2 755.1l-120.5 15.5 60.5-129.1 60 113.6z"/>
			<path class="st38" d="m2585.2 649v106.1l-60-113.6 60 7.5z"/>
			<path class="st39" d="m2385.9 762.6l78.8 8-78.8-158v150z"/>
			<path class="st40" d="m2440.6 817.2l24.1-46.6-78.8-8 54.7 54.6z"/>
			<path class="st41" d="m2585.2 755.1l-118.1 68.2-2.4-52.7 120.5-15.5z"/>
			<path class="st42" d="m2440.6 817.2l26.5 6.1-2.4-52.7-24.1 46.6z"/>
			<path class="st43" d="m2467.1 823.3l8.8 16.8v-21.9l-8.8 5.1z"/>
			<path class="st44" d="m2467.1 823.3l8.8 87.2v-70.4l-8.8-16.8z"/>
			<path class="st45" d="m2455.3 820.4l20.6 90-8.8-87.2-11.8-2.8z"/>
			<path class="st46" d="m2496.2 806.4l-20.3 46.7 0.1-13 20.2-33.7z"/>
			<path class="st47" d="m2475.8 853.1l30.2-52.3-9.8 5.6-20.4 46.7z"/>
	</g>
	<g transform="matrix(.3019 0 0 .3019 222.78 87.24)">
			<path class="st30" d="m3006.3 692.9v106.1l-118.1 68.2-26.5-6.1-54.6-54.6v-150l64.3-28.9 110.4 21.4 24.5 43.9z"/>
			<path class="st31" d="m2876.4 864.4v90h20.6v-92.3l-8.8 5.1-11.8-2.8z"/>
			<path class="st32" d="m2897 884l20.3-33.7 9.8-5.6-30.2 52.3 0.1-13z"/>
			<ellipse class="st32" cx="2882.4" cy="955.3" rx="14.6" ry="10"/>
			<path class="st33" d="m2946.3 685.4l-75-57.9 110.4 21.4-35.4 36.5z"/>
			<path class="st34" d="m2807 656.5l139.3 28.9-75-57.9-64.3 29z"/>
			<path class="st35" d="m2981.7 649l24.6 43.9-60-7.5 35.4-36.4z"/>
			<path class="st36" d="m2946.3 685.4l-60.5 129.1-78.8-158 139.3 28.9z"/>
			<path class="st37" d="m3006.3 799l-120.5 15.5 60.5-129.1 60 113.6z"/>
			<path class="st38" d="m3006.3 692.9v106.1l-60-113.6 60 7.5z"/>
			<path class="st39" d="m2807 806.5l78.8 8-78.8-158v150z"/>
			<path class="st40" d="m2861.7 861.2l24.1-46.6-78.8-8 54.7 54.6z"/>
			<path class="st41" d="m3006.3 799l-118.1 68.2-2.4-52.7 120.5-15.5z"/>
			<path class="st42" d="m2861.7 861.2l26.5 6.1-2.4-52.7-24.1 46.6z"/>
			<path class="st43" d="m2888.2 867.2l8.8 16.8v-21.9l-8.8 5.1z"/>
			<path class="st44" d="m2888.2 867.2l8.8 87.2v-70.4l-8.8-16.8z"/>
			<path class="st45" d="m2876.4 864.4l20.6 90-8.8-87.2-11.8-2.8z"/>
			<path class="st46" d="m2917.3 850.3l-20.3 46.7 0.1-13 20.2-33.7z"/>
			<path class="st47" d="m2896.9 897l30.2-52.3-9.8 5.6-20.4 46.7z"/>
	</g>
	<g transform="matrix(.3019 0 0 .3019 204.4 87.76)">
			<path class="st30" d="m2894.6 696.1v106.1l-118.1 68.2-26.5-6.1-54.6-54.6v-150l64.3-28.9 110.4 21.4 24.5 43.9z"/>
			<path class="st31" d="m2764.7 867.5v90h20.6v-92.3l-8.8 5.1-11.8-2.8z"/>
			<path class="st32" d="m2785.3 887.2l20.3-33.7 9.8-5.6-30.2 52.3 0.1-13z"/>
			<ellipse class="st32" cx="2770.7" cy="958.5" rx="14.6" ry="10"/>
			<path class="st33" d="m2834.6 688.6l-75-57.9 110.4 21.4-35.4 36.5z"/>
			<path class="st34" d="m2695.3 659.7l139.3 28.9-75-57.9-64.3 29z"/>
			<path class="st35" d="m2869.9 652.2l24.6 43.9-60-7.5 35.4-36.4z"/>
			<path class="st36" d="m2834.6 688.6l-60.6 129.1-78.8-158 139.4 28.9z"/>
			<path class="st37" d="m2894.6 802.2l-120.6 15.5 60.5-129.1 60.1 113.6z"/>
			<path class="st38" d="m2894.6 696.1v106.1l-60-113.6 60 7.5z"/>
			<path class="st39" d="m2695.3 809.7l78.8 8-78.8-158v150z"/>
			<path class="st40" d="m2749.9 864.3l24.1-46.6-78.8-8 54.7 54.6z"/>
			<path class="st41" d="m2894.6 802.2l-118.1 68.2-2.4-52.7 120.5-15.5z"/>
			<path class="st42" d="m2749.9 864.3l26.5 6.1-2.4-52.7-24.1 46.6z"/>
			<path class="st43" d="m2776.5 870.4l8.8 16.8v-21.9l-8.8 5.1z"/>
			<path class="st44" d="m2776.5 870.4l8.8 87.2v-70.4l-8.8-16.8z"/>
			<path class="st45" d="m2764.7 867.5l20.6 90-8.8-87.2-11.8-2.8z"/>
			<path class="st46" d="m2805.6 853.5l-20.3 46.7 0.1-13 20.2-33.7z"/>
			<path class="st47" d="m2785.2 900.2l30.2-52.3-9.8 5.6-20.4 46.7z"/>
	</g>
	<g transform="matrix(.3019 0 0 .3019 187.98 66.634)">
			<path class="st30" d="m2794.8 567.7v106.1l-118.1 68.2-26.5-6.1-54.6-54.6v-150l64.3-28.9 110.4 21.4 24.5 43.9z"/>
			<path class="st31" d="m2664.9 739.1v90h20.6v-92.3l-8.8 5.1-11.8-2.8z"/>
			<path class="st32" d="m2685.5 758.8l20.3-33.7 9.8-5.6-30.2 52.3 0.1-13z"/>
			<ellipse class="st32" cx="2671" cy="830.1" rx="14.6" ry="10"/>
			<path class="st33" d="m2734.8 560.2l-75-57.9 110.4 21.4-35.4 36.5z"/>
			<path class="st34" d="m2595.6 531.3l139.3 28.9-75-57.9-64.3 29z"/>
			<path class="st35" d="m2770.2 523.8l24.6 43.9-60-7.5 35.4-36.4z"/>
			<path class="st36" d="m2734.8 560.2l-60.5 129.1-78.8-158 139.3 28.9z"/>
			<path class="st37" d="m2794.8 673.8l-120.5 15.5 60.5-129.1 60 113.6z"/>
			<path class="st38" d="m2794.8 567.7v106.1l-60-113.6 60 7.5z"/>
			<path class="st39" d="m2595.6 681.3l78.8 8-78.8-158v150z"/>
			<path class="st40" d="m2650.2 735.9l24.1-46.6-78.8-8 54.7 54.6z"/>
			<path class="st41" d="m2794.8 673.8l-118.1 68.2-2.4-52.7 120.5-15.5z"/>
			<path class="st42" d="m2650.2 735.9l26.5 6.1-2.4-52.7-24.1 46.6z"/>
			<path class="st43" d="m2676.7 742l8.8 16.8v-21.9l-8.8 5.1z"/>
			<path class="st44" d="m2676.7 742l8.8 87.2v-70.4l-8.8-16.8z"/>
			<path class="st45" d="m2664.9 739.1l20.6 90-8.8-87.2-11.8-2.8z"/>
			<path class="st46" d="m2705.8 725.1l-20.3 46.7 0.1-13 20.2-33.7z"/>
			<path class="st47" d="m2685.5 771.8l30.2-52.3-9.8 5.6-20.4 46.7z"/>
	</g>
	<g transform="matrix(.3019 0 0 .3019 169.54 72.827)">
			<path class="st30" d="m2682.8 605.4v106.1l-118.1 68.2-26.5-6.1-54.6-54.6v-150l64.3-28.9 110.4 21.4 24.5 43.9z"/>
			<path class="st31" d="m2552.9 776.8v90h20.6v-92.3l-8.8 5.1-11.8-2.8z"/>
			<path class="st32" d="m2573.5 796.4l20.3-33.7 9.8-5.6-30.2 52.3 0.1-13z"/>
			<ellipse class="st32" cx="2558.9" cy="867.7" rx="14.6" ry="10"/>
			<path class="st33" d="m2622.8 597.9l-75-57.9 110.4 21.4-35.4 36.5z"/>
			<path class="st34" d="m2483.5 568.9l139.3 28.9-75-57.9-64.3 29z"/>
			<path class="st35" d="m2658.1 561.4l24.6 43.9-60-7.5 35.4-36.4z"/>
			<path class="st36" d="m2622.8 597.9l-60.5 129.1-78.8-158 139.3 28.9z"/>
			<path class="st37" d="m2682.8 711.4l-120.5 15.6 60.5-129.1 60 113.5z"/>
			<path class="st38" d="m2682.8 605.4v106.1l-60-113.6 60 7.5z"/>
			<path class="st39" d="m2483.5 718.9l78.8 8-78.8-158v150z"/>
			<path class="st40" d="m2538.1 773.6l24.1-46.6-78.8-8 54.7 54.6z"/>
			<path class="st41" d="m2682.8 711.4l-118.1 68.2-2.4-52.7 120.5-15.5z"/>
			<path class="st42" d="m2538.1 773.6l26.5 6.1-2.4-52.7-24.1 46.6z"/>
			<path class="st43" d="m2564.7 779.6l8.8 16.8v-21.9l-8.8 5.1z"/>
			<path class="st44" d="m2564.7 779.6l8.8 87.2v-70.4l-8.8-16.8z"/>
			<path class="st45" d="m2552.9 776.8l20.6 90-8.8-87.2-11.8-2.8z"/>
			<path class="st46" d="m2593.8 762.8l-20.3 46.7 0.1-13 20.2-33.7z"/>
			<path class="st47" d="m2573.4 809.5l30.2-52.3-9.8 5.6-20.4 46.7z"/>
	</g>
	<g transform="matrix(.3019 0 0 .3019 190.02 80.799)">
			<path class="st30" d="m2807.2 653.8v106.1l-118.1 68.2-26.5-6.1-54.6-54.6v-150l64.3-28.9 110.4 21.4 24.5 43.9z"/>
			<path class="st31" d="m2677.3 825.2v90h20.6v-92.3l-8.8 5.1-11.8-2.8z"/>
			<path class="st32" d="m2697.9 844.9l20.3-33.7 9.8-5.6-30.2 52.3 0.1-13z"/>
			<ellipse class="st32" cx="2683.3" cy="916.2" rx="14.6" ry="10"/>
			<path class="st33" d="m2747.2 646.3l-75-57.9 110.4 21.4-35.4 36.5z"/>
			<path class="st34" d="m2607.9 617.4l139.3 28.9-75-57.9-64.3 29z"/>
			<path class="st35" d="m2782.6 609.9l24.6 43.9-60-7.5 35.4-36.4z"/>
			<path class="st36" d="m2747.2 646.3l-60.5 129.1-78.8-158 139.3 28.9z"/>
			<path class="st37" d="m2807.2 759.9l-120.5 15.5 60.5-129.1 60 113.6z"/>
			<path class="st38" d="m2807.2 653.8v106.1l-60-113.6 60 7.5z"/>
			<path class="st39" d="m2607.9 767.4l78.8 8-78.8-158v150z"/>
			<path class="st40" d="m2662.6 822l24.1-46.6-78.8-8 54.7 54.6z"/>
			<path class="st41" d="m2807.2 759.9l-118.1 68.2-2.4-52.7 120.5-15.5z"/>
			<path class="st42" d="m2662.6 822l26.5 6.1-2.4-52.7-24.1 46.6z"/>
			<path class="st43" d="m2689.1 828.1l8.8 16.8v-21.9l-8.8 5.1z"/>
			<path class="st44" d="m2689.1 828.1l8.8 87.2v-70.4l-8.8-16.8z"/>
			<path class="st45" d="m2677.3 825.2l20.6 90-8.8-87.2-11.8-2.8z"/>
			<path class="st46" d="m2718.2 811.2l-20.3 46.7 0.1-13 20.2-33.7z"/>
			<path class="st47" d="m2697.8 857.9l30.2-52.3-9.8 5.6-20.4 46.7z"/>
	</g>
	<g transform="matrix(.26212 0 0 .26212 177.79 104.14)">
			<path class="st30" d="m2872.1 814.1l60.1-27 97.6-7.5 66.1 10.5 16.5 45.1-1.5 88.6-33 54.1-51.1 16.5-75.1-1.5-48.1-49.6-15-64.6-16.5-64.6z"/>
			<path class="st48" d="m2993 993.2v111.5h28.4v-110.5l-28.4-1z"/>
			<ellipse class="st48" cx="3006" cy="1104.2" rx="15.4" ry="10.1"/>
			<path class="st49" d="m2932.2 787l35.3 21.3-95.4 5.7 60.1-27z"/>
			<path class="st50" d="m3047.4 855.4l48.5-65.3 16.5 45.1-65 20.2z"/>
			<path class="st51" d="m2967.4 808.4l62.3-28.8-97.6 7.5 35.3 21.3z"/>
			<path class="st52" d="m2967.4 808.4l128.4-18.3-66.1-10.5-62.3 28.8z"/>
			<path class="st53" d="m2967.4 808.4l79.9 47 48.5-65.3-128.4 18.3z"/>
			<path class="st54" d="m3047.4 855.4l63.5 68.4 1.5-88.6-65 20.2z"/>
			<path class="st55" d="m3077.8 977.8l-30.5-122.4 63.5 68.4-33 54z"/>
			<path class="st56" d="m2958.1 885.4l-54.5 57.9 48.1 49.6 6.4-107.5z"/>
			<path class="st57" d="m2958.1 885.4l68.6 108.9-75.1-1.5 6.5-107.4z"/>
			<path class="st58" d="m2958.1 885.4l89.2-30-20.6 138.9-68.6-108.9z"/>
			<path class="st59" d="m3047.4 855.4l-20.6 138.9 51.1-16.5-30.5-122.4z"/>
			<path class="st60" d="m2903.6 943.2l-31.5-129.2 86.1 71.3-54.6 57.9z"/>
			<path class="st61" d="m2958.1 885.4l9.3-77 79.9 47-89.2 30z"/>
			<path class="st30" d="m2872.1 814.1l95.4-5.7-9.3 77-86.1-71.3z"/>
			<path class="st62" d="m3002.4 993.8l19 110.9v-110.5l-19-0.4z"/>
			<path class="st63" d="m3021.3 994.2l0.1 61.1-9.2-61.3 9.1 0.2z"/>
			<path class="st64" d="m2994.3 993.7l27.1 111-19-110.9-8.1-0.1z"/>
	</g>
	<g transform="matrix(.26212 0 0 .26212 197.01 100.34)">
			<path class="st30" d="m3006.6 787.4l60.1-27 97.6-7.5 66.1 10.5 16.5 45.1-1.5 88.6-33 54.1-51.1 16.5-75.1-1.5-48.1-49.6-15-64.6-16.5-64.6z"/>
			<path class="st48" d="m3127.5 966.6v111.5h28.4v-110.5l-28.4-1z"/>
			<ellipse class="st48" cx="3140.5" cy="1077.6" rx="15.4" ry="10.1"/>
			<path class="st49" d="m3066.7 760.4l35.3 21.3-95.4 5.7 60.1-27z"/>
			<path class="st50" d="m3181.9 828.7l48.5-65.3 16.5 45.1-65 20.2z"/>
			<path class="st51" d="m3102 781.7l62.3-28.8-97.6 7.5 35.3 21.3z"/>
			<path class="st52" d="m3102 781.7l128.4-18.3-66.1-10.5-62.3 28.8z"/>
			<path class="st53" d="m3102 781.7l79.9 47 48.5-65.3-128.4 18.3z"/>
			<path class="st54" d="m3181.9 828.7l63.5 68.4 1.5-88.6-65 20.2z"/>
			<path class="st55" d="m3212.4 951.2l-30.5-122.4 63.5 68.4-33 54z"/>
			<path class="st56" d="m3092.7 858.7l-54.5 57.9 48.1 49.6 6.4-107.5z"/>
			<path class="st57" d="m3092.7 858.7l68.6 108.9-75.1-1.5 6.5-107.4z"/>
			<path class="st58" d="m3092.7 858.7l89.2-30-20.6 138.9-68.6-108.9z"/>
			<path class="st59" d="m3181.9 828.7l-20.6 138.9 51.1-16.5-30.5-122.4z"/>
			<path class="st60" d="m3038.1 916.6l-31.5-129.2 86.1 71.3-54.6 57.9z"/>
			<path class="st61" d="m3092.7 858.7l9.3-77 79.9 47-89.2 30z"/>
			<path class="st30" d="m3006.6 787.4l95.4-5.7-9.3 77-86.1-71.3z"/>
			<path class="st62" d="m3136.9 967.2l19 110.9v-110.5l-19-0.4z"/>
			<path class="st63" d="m3155.9 967.6l0.1 61.1-9.2-61.3 9.1 0.2z"/>
			<path class="st64" d="m3128.8 967l27.1 111-19-110.9-8.1-0.1z"/>
	</g>
	<g transform="matrix(.26212 0 0 .26212 159.96 93.297)">
			<path class="st30" d="m2747.3 738.1l60.1-27 97.6-7.5 66.1 10.5 16.5 45.1-1.5 88.6-33 54.1-51.1 16.5-75.1-1.5-48.1-49.6-15-64.6-16.5-64.6z"/>
			<path class="st48" d="m2868.2 917.3v111.5h28.4v-110.5l-28.4-1z"/>
			<ellipse class="st48" cx="2881.2" cy="1028.3" rx="15.4" ry="10.1"/>
			<path class="st49" d="m2807.4 711.1l35.3 21.3-95.4 5.7 60.1-27z"/>
			<path class="st50" d="m2922.6 779.4l48.5-65.3 16.5 45.1-65 20.2z"/>
			<path class="st51" d="m2842.7 732.4l62.3-28.8-97.6 7.5 35.3 21.3z"/>
			<path class="st52" d="m2842.7 732.4l128.4-18.3-66.1-10.5-62.3 28.8z"/>
			<path class="st53" d="m2842.7 732.4l79.9 47 48.5-65.3-128.4 18.3z"/>
			<path class="st54" d="m2922.6 779.4l63.5 68.4 1.5-88.6-65 20.2z"/>
			<path class="st55" d="m2953.1 901.9l-30.5-122.4 63.5 68.4-33 54z"/>
			<path class="st56" d="m2833.4 809.4l-54.5 57.9 48.1 49.6 6.4-107.5z"/>
			<path class="st57" d="m2833.4 809.4l68.6 108.9-75.1-1.5 6.5-107.4z"/>
			<path class="st58" d="m2833.4 809.4l89.2-30-20.6 139-68.6-109z"/>
			<path class="st59" d="m2922.6 779.4l-20.6 139 51.1-16.5-30.5-122.5z"/>
			<path class="st60" d="m2778.8 867.3l-31.5-129.2 86.1 71.3-54.6 57.9z"/>
			<path class="st61" d="m2833.4 809.4l9.3-77 79.9 47-89.2 30z"/>
			<path class="st30" d="m2747.3 738.1l95.4-5.7-9.3 77-86.1-71.3z"/>
			<path class="st62" d="m2877.6 917.9l19 110.9v-110.5l-19-0.4z"/>
			<path class="st63" d="m2896.6 918.3l0.1 61.1-9.2-61.3 9.1 0.2z"/>
			<path class="st64" d="m2869.5 917.7l27.1 111-19-110.9-8.1-0.1z"/>
	</g>
	<g transform="matrix(.3019 0 0 .3019 203.4 102.65)">
			<path class="st30" d="m2888.5 786.6v106.1l-118.1 68.2-26.5-6.1-54.6-54.6v-150l64.3-28.9 110.4 21.4 24.5 43.9z"/>
			<path class="st31" d="m2758.6 958v90h20.6v-92.3l-8.8 5.1-11.8-2.8z"/>
			<path class="st32" d="m2779.2 977.7l20.3-33.7 9.8-5.6-30.2 52.3 0.1-13z"/>
			<ellipse class="st32" cx="2764.6" cy="1049" rx="14.6" ry="10"/>
			<path class="st33" d="m2828.5 779.1l-75-57.9 110.4 21.4-35.4 36.5z"/>
			<path class="st34" d="m2689.2 750.2l139.3 28.9-75-57.9-64.3 29z"/>
			<path class="st35" d="m2863.9 742.7l24.6 43.9-60-7.5 35.4-36.4z"/>
			<path class="st36" d="m2828.5 779.1l-60.5 129.1-78.8-158 139.3 28.9z"/>
			<path class="st37" d="m2888.5 892.7l-120.5 15.5 60.5-129.1 60 113.6z"/>
			<path class="st38" d="m2888.5 786.6v106.1l-60-113.6 60 7.5z"/>
			<path class="st39" d="m2689.2 900.2l78.8 8-78.8-158v150z"/>
			<path class="st40" d="m2743.9 954.8l24.1-46.6-78.8-8 54.7 54.6z"/>
			<path class="st41" d="m2888.5 892.7l-118.1 68.2-2.4-52.7 120.5-15.5z"/>
			<path class="st42" d="m2743.9 954.8l26.5 6.1-2.4-52.7-24.1 46.6z"/>
			<path class="st43" d="m2770.4 960.9l8.8 16.8v-21.9l-8.8 5.1z"/>
			<path class="st44" d="m2770.4 960.9l8.8 87.2v-70.4l-8.8-16.8z"/>
			<path class="st45" d="m2758.6 958l20.6 90-8.8-87.2-11.8-2.8z"/>
			<path class="st46" d="m2799.5 944l-20.3 46.7 0.1-13 20.2-33.7z"/>
			<path class="st47" d="m2779.1 990.7l30.2-52.3-9.8 5.6-20.4 46.7z"/>
	</g>
	<path class="st83" d="m416.2 394.9l116.3-41.3v15l-116.3 41.2v-14.9z"/>
	<path class="st84" d="m416.2 394.9l-48.8-30v15l48.8 30v-15z"/>
	<path class="st85" d="m367.5 364.9l116.2-41.3 48.8 30-116.3 41.2-48.7-29.9z"/>
	<path class="st86" d="m416.2 394.9l22.5-26.3 39 4.5-61.5 21.8z"/>
	<path class="st87" d="m431 342.4l7.7 26.2-50.3-11.3 42.6-14.9z"/>
	<path class="st88" d="m367.5 364.9l37.5 7.5 11.3 22.5-48.8-30z"/>
	<path class="st84" d="m388.5 357.4l16.5 15-37.5-7.5 21-7.5z"/>
	<path class="st89" d="m388.5 357.4l50.2 11.3-33.8 3.8-16.4-15.1z"/>
	<path class="st90" d="m405 372.4l11.3 22.5 22.5-26.3-33.8 3.8z"/>
	<path class="st91" d="m430.5 342.5l28.9-3.8-20.6 30.8-8.3-27z"/>
	<path class="st86" d="m532.5 353.6l-33.8 12 3.8-12h30z"/>
	<path class="st92" d="m502.5 353.6l-45-15-18.8 30 63.8-15z"/>
	<path class="st93" d="m498.7 365.6l-21.8 7.9 25.6-20.6-3.8 12.7z"/>
	<path class="st94" d="m438.7 368.6l63-15-24 19.5-39-4.5z"/>
	<path class="st95" d="m483.7 323.6l-3.8 11.3-22.5 3.8 26.3-15.1z"/>
	<path class="st96" d="m428.2 343.3l55.5-19.7-27.7 15.8-27.8 3.9z"/>
	<path class="st97" d="m479.6 334.9l22.1 18.8-44.2-15 22.1-3.8z"/>
	<path class="st98" d="m483.7 323.6l19.5 12-23.3-0.8 3.8-11.2z"/>
	<path class="st99" d="m501.7 353.6l1.5-18-23.3-0.8 21.8 18.8z"/>
	<path class="st100" d="m503.2 335.6l29.3 18h-30.8l1.5-18z"/>
	<g transform="matrix(.66516 0 0 .66516 132.38 75.696)">
			<rect class="st101" x="1162.6" y="297" width="158.7" height="278.6"/>
			<rect class="st102" x="1118.5" y="339.3" width="158.7" height="274.2"/>
			<path class="st20" d="M1321.3,297l-44.1,42.3v278.6l44.1-42.3V297z"/>
			<rect class="st5" x="1133.5" y="339.3" width="26" height="274.2"/>
			<path class="st103" d="m1133.5 339.3l4.4-4.4v278.6l-4.4 4.4v-278.6z"/>
			<path class="st5" d="m1138 334.9v4.4h21.6l4.3-4.3-25.9-0.1z"/>
			<rect class="st5" x="1237.6" y="339.3" width="26" height="274.2"/>
			<path class="st103" d="m1237.6 339.3l4.4-4.4v278.6l-4.4 4.4v-278.6z"/>
			<path class="st5" d="m1242 334.9v4.4h21.6l4.3-4.3-25.9-0.1z"/>
			<rect class="st5" x="1185.6" y="339.3" width="26" height="274.2"/>
			<path class="st103" d="m1185.6 339.3l4.4-4.4v278.6l-4.4 4.4v-278.6z"/>
			<path class="st5" d="m1190 334.9v4.4h21.6l4.3-4.3-25.9-0.1z"/>
			<path class="st102" d="m1118.5 612.9l15.1 0.1v5h-15l-0.1-5.1z"/>
			<path class="st102" d="m1159.5 612.9l26 0.1v5h-25.9l-0.1-5.1z"/>
			<path class="st102" d="m1211.6 612.9l26 0.1v5h-25.9l-0.1-5.1z"/>
			<path class="st102" d="m1263.6 612.9l13.6 0.1v4.9h-13.5l-0.1-5z"/>
			<path class="st104" d="m1177.6 297l-39.9 38.1h143.6l39.9-38.1h-143.6z"/>
			<path class="st104" d="m1162.6 297l-44.1 42.3 15 0.1 44.1-42.4h-15z"/>
			<path class="st104" d="m1163.9 335l-4.3 4.3h26l4.4-4.4-26.1 0.1z"/>
			<path class="st104" d="m1215.9 335l-4.3 4.3h26l4.4-4.4-26.1 0.1z"/>
			<path class="st104" d="m1267.9 335l-4.3 4.3 13.6-0.1 4.2-4.3-13.5 0.1z"/>
	</g>
	<g transform="matrix(.79599 0 0 .79599 62.729 53.631)">
				<rect class="st101" x="849.4" y="271.4" width="158.7" height="278.6">
			</rect>
				<rect class="st102" x="805.3" y="313.7" width="158.7" height="274.2">
			</rect>
				<path class="st20" d="m1008.1 271.4l-44.1 42.3v278.6l44.1-42.3v-278.6z"/>
				<rect class="st5" x="820.4" y="313.8" width="26" height="274.2">
			</rect>
				<path class="st103" d="m820.4 313.8l4.4-4.4v278.6l-4.4 4.4v-278.6z"/>
				<path class="st5" d="m824.8 309.4v4.4h21.6l4.3-4.3-25.9-0.1z"/>
				<rect class="st5" x="924.4" y="313.8" width="26" height="274.2">
			</rect>
				<path class="st103" d="m924.4 313.8l4.4-4.4v278.6l-4.4 4.4v-278.6z"/>
				<path class="st5" d="m928.8 309.4v4.4h21.6l4.3-4.3-25.9-0.1z"/>
				<rect class="st5" x="872.4" y="313.8" width="26" height="274.2">
			</rect>
				<path class="st103" d="m872.4 313.8l4.4-4.4v278.6l-4.4 4.4v-278.6z"/>
				<path class="st5" d="m876.8 309.4v4.4h21.6l4.3-4.3-25.9-0.1z"/>
				<path class="st102" d="m805.3 587.3l15.1 0.1v5h-15l-0.1-5.1z"/>
				<path class="st102" d="m846.3 587.3l26 0.1v5h-25.9l-0.1-5.1z"/>
				<path class="st102" d="m898.4 587.3l26 0.1v5h-25.9l-0.1-5.1z"/>
				<path class="st102" d="m950.4 587.3l13.6 0.1v4.9h-13.5l-0.1-5z"/>
				<path class="st104" d="m849.4 271.4l-44.1 42.3h158.7l44.1-42.3h-158.7z"/>
				<path class="st104" d="m849.4 271.4l-44.1 42.3 15 0.1 44.1-42.4h-15z"/>
				<path class="st104" d="m850.7 309.4l-4.3 4.3h26l4.4-4.4-26.1 0.1z"/>
				<path class="st104" d="m902.7 309.4l-4.3 4.3h26l4.4-4.4-26.1 0.1z"/>
				<path class="st104" d="m954.7 309.4l-4.3 4.3 13.6-0.1 4.2-4.3-13.5 0.1z"/>
				<path class="st104" d="m849.4 254.6l-44.1 42.3h158.7l44.1-42.3h-158.7z"/>
			<path class="st20" d="m964 313.7v-16.8l44.1-42.3v16.8l-44.1 42.3z"/>
			<rect class="st102" x="805.3" y="296.9" width="158.7" height="16.8"/>
				<path class="st104" d="m862 248.6l-33.5 32.1h120.5l33.5-32.1h-120.5z"/>
			<path class="st20" d="m949 293.4v-12.8l33.5-32.1v12.8l-33.5 32.1z"/>
			<rect class="st102" x="828.5" y="280.7" width="120.4" height="12.8"/>
				<path class="st104" d="m872.4 243.3l-25.1 24.1h90.3l25.1-24.1h-90.3z"/>
			<path class="st20" d="m937.6 276.9v-9.6l25.1-24.1v9.6l-25.1 24.1z"/>
			<rect class="st102" x="847.3" y="267.3" width="90.3" height="9.6"/>
			<rect class="st102" x="895.9" y="152.8" width="9.8" height="104.4"/>
			<path class="st20" d="M905.8,152.8l3.6-3.5v104.4l-3.6,3.5V152.8z"/>
			<path class="st104" d="m895.9 152.8h9.8l3.6-3.5h-9.8l-3.6 3.5z"/>
	</g>
	<g transform="matrix(.48208 0 0 .48208 136.64 117.63)">
			<rect class="st101" x="1531.6" y="511.9" width="158.7" height="278.6"/>
			<rect class="st102" x="1487.5" y="554.2" width="158.7" height="274.2"/>
			<path class="st20" d="M1690.3,511.9l-44.1,42.3v278.6l44.1-42.3V511.9z"/>
			<rect class="st5" x="1502.6" y="554.2" width="26" height="274.2"/>
			<path class="st103" d="m1502.6 554.2l4.4-4.4v278.6l-4.4 4.4v-278.6z"/>
			<path class="st5" d="m1507 549.8v4.4h21.6l4.3-4.3-25.9-0.1z"/>
			<rect class="st5" x="1606.6" y="554.2" width="26" height="274.2"/>
			<path class="st103" d="m1606.6 554.2l4.4-4.4v278.6l-4.4 4.4v-278.6z"/>
			<path class="st5" d="m1611 549.8v4.4h21.6l4.3-4.3-25.9-0.1z"/>
			<rect class="st5" x="1554.6" y="554.2" width="26" height="274.2"/>
			<path class="st103" d="m1554.6 554.2l4.4-4.4v278.6l-4.4 4.4v-278.6z"/>
			<path class="st5" d="m1559 549.8v4.4h21.6l4.3-4.3-25.9-0.1z"/>
			<path class="st102" d="m1487.5 827.7l15.1 0.1v5h-15l-0.1-5.1z"/>
			<path class="st102" d="m1528.5 827.7l26 0.1v5h-25.9l-0.1-5.1z"/>
			<path class="st102" d="m1580.6 827.7l26 0.1v5h-25.9l-0.1-5.1z"/>
			<path class="st102" d="m1632.6 827.8l13.6 0.1v4.9h-13.5l-0.1-5z"/>
			<path class="st104" d="m1546.6 511.9l-39.9 38.1h143.6l39.9-38.1h-143.6z"/>
			<path class="st104" d="m1531.6 511.9l-44.1 42.3 15 0.1 44.1-42.4h-15z"/>
			<path class="st104" d="m1532.9 549.9l-4.3 4.3h26l4.4-4.4-26.1 0.1z"/>
			<path class="st104" d="m1584.9 549.9l-4.3 4.3h26l4.4-4.4-26.1 0.1z"/>
			<path class="st104" d="m1636.9 549.9l-4.3 4.3 13.6-0.1 4.2-4.3-13.5 0.1z"/>
	</g>
	<g transform="matrix(.2602 0 0 .2602 -43.413 65.633)">
			<path class="st30" d="m1545.4 603.3v106.1l-118.1 68.2-26.5-6.1-54.6-54.6v-150l64.3-28.9 110.4 21.4 24.5 43.9z"/>
			<path class="st31" d="m1415.5 774.7v90h20.6v-92.3l-8.8 5.1-11.8-2.8z"/>
			<path class="st32" d="m1436.1 794.3l20.3-33.7 9.8-5.6-30.2 52.3 0.1-13z"/>
			<ellipse class="st32" cx="1421.5" cy="865.6" rx="14.6" ry="10"/>
			<path class="st33" d="m1485.4 595.8l-75-57.9 110.4 21.4-35.4 36.5z"/>
			<path class="st34" d="m1346.1 566.8l139.3 28.9-75-57.9-64.3 29z"/>
			<path class="st35" d="m1520.7 559.3l24.6 43.9-60-7.5 35.4-36.4z"/>
			<path class="st36" d="m1485.4 595.8l-60.5 129.1-78.8-158 139.3 28.9z"/>
			<path class="st37" d="m1545.4 709.3l-120.5 15.5 60.5-129.1 60 113.6z"/>
			<path class="st38" d="m1545.4 603.3v106.1l-60-113.6 60 7.5z"/>
			<path class="st39" d="m1346.1 716.8l78.8 8-78.8-158v150z"/>
			<path class="st40" d="m1400.7 771.5l24.1-46.6-78.8-8 54.7 54.6z"/>
			<path class="st41" d="m1545.4 709.3l-118.1 68.2-2.4-52.7 120.5-15.5z"/>
			<path class="st42" d="m1400.7 771.5l26.5 6.1-2.4-52.7-24.1 46.6z"/>
			<path class="st43" d="m1427.3 777.5l8.8 16.8v-21.9l-8.8 5.1z"/>
			<path class="st44" d="m1427.3 777.5l8.8 87.2v-70.4l-8.8-16.8z"/>
			<path class="st45" d="m1415.5 774.7l20.6 90-8.8-87.2-11.8-2.8z"/>
			<path class="st46" d="m1456.4 760.7l-20.3 46.7 0.1-13 20.2-33.7z"/>
			<path class="st47" d="m1436 807.4l30.2-52.3-9.8 5.6-20.4 46.7z"/>
	</g>
	<g transform="matrix(.24088 0 0 .24088 -81.58 69.513)">
			<path class="st30" d="m1132.5 600.5l60.1-27 97.6-7.5 66.1 10.5 16.5 45.1-1.5 88.6-33 54.1-51.1 16.5-75.1-1.5-48.1-49.6-15-64.6-16.5-64.6z"/>
			<path class="st48" d="m1253.4 779.6v111.5h28.4v-110.5l-28.4-1z"/>
			<ellipse class="st48" cx="1266.5" cy="890.6" rx="15.4" ry="10.1"/>
			<path class="st49" d="m1192.6 573.4l35.3 21.3-95.4 5.7 60.1-27z"/>
			<path class="st50" d="m1307.8 641.8l48.5-65.3 16.5 45.1-65 20.2z"/>
			<path class="st51" d="m1227.9 594.8l62.3-28.8-97.6 7.5 35.3 21.3z"/>
			<path class="st52" d="m1227.9 594.8l128.4-18.3-66.1-10.5-62.3 28.8z"/>
			<path class="st53" d="m1227.9 594.8l79.9 47 48.5-65.3-128.4 18.3z"/>
			<path class="st54" d="m1307.8 641.8l63.5 68.4 1.5-88.6-65 20.2z"/>
			<path class="st55" d="m1338.3 764.2l-30.5-122.4 63.5 68.4-33 54z"/>
			<path class="st56" d="m1218.6 671.8l-54.5 57.9 48.1 49.6 6.4-107.5z"/>
			<path class="st57" d="m1218.6 671.8l68.6 108.9-75.1-1.5 6.5-107.4z"/>
			<path class="st58" d="m1218.6 671.8l89.2-30-20.6 138.9-68.6-108.9z"/>
			<path class="st59" d="m1307.8 641.8l-20.6 138.9 51.1-16.5-30.5-122.4z"/>
			<path class="st60" d="m1164.1 729.6l-31.5-129.2 86.1 71.3-54.6 57.9z"/>
			<path class="st61" d="m1218.6 671.8l9.3-77 79.9 47-89.2 30z"/>
			<path class="st30" d="m1132.5 600.5l95.4-5.7-9.3 77-86.1-71.3z"/>
			<path class="st62" d="m1262.8 780.2l19 110.9v-110.5l-19-0.4z"/>
			<path class="st63" d="m1281.8 780.6l0.1 61.1-9.2-61.3 9.1 0.2z"/>
			<path class="st64" d="m1254.7 780l27.1 111-19-110.9-8.1-0.1z"/>
	</g>
	<g transform="matrix(.2602 0 0 .2602 -67.758 69.612)">
			<path class="st30" d="m1373.7 631.3v106.1l-118.1 68.2-26.5-6.1-54.6-54.6v-150l64.3-28.9 110.4 21.4 24.5 43.9z"/>
			<path class="st31" d="m1243.8 802.7v90h20.6v-92.3l-8.8 5.1-11.8-2.8z"/>
			<path class="st32" d="m1264.4 822.4l20.3-33.7 9.8-5.6-30.2 52.3 0.1-13z"/>
			<ellipse class="st32" cx="1249.8" cy="893.7" rx="14.6" ry="10"/>
			<path class="st33" d="m1313.7 623.8l-75-57.9 110.4 21.4-35.4 36.5z"/>
			<path class="st34" d="m1174.4 594.9l139.3 28.9-75-57.9-64.3 29z"/>
			<path class="st35" d="m1349.1 587.4l24.6 43.9-60-7.5 35.4-36.4z"/>
			<path class="st36" d="m1313.7 623.8l-60.5 129.1-78.8-158 139.3 28.9z"/>
			<path class="st37" d="m1373.7 737.4l-120.5 15.5 60.5-129.1 60 113.6z"/>
			<path class="st38" d="m1373.7 631.3v106.1l-60-113.6 60 7.5z"/>
			<path class="st39" d="m1174.4 744.9l78.8 8-78.8-158v150z"/>
			<path class="st40" d="m1229.1 799.5l24.1-46.6-78.8-8 54.7 54.6z"/>
			<path class="st41" d="m1373.7 737.4l-118.1 68.2-2.4-52.7 120.5-15.5z"/>
			<path class="st42" d="m1229.1 799.5l26.5 6.1-2.4-52.7-24.1 46.6z"/>
			<path class="st43" d="m1255.6 805.6l8.8 16.8v-21.9l-8.8 5.1z"/>
			<path class="st44" d="m1255.6 805.6l8.8 87.2v-70.4l-8.8-16.8z"/>
			<path class="st45" d="m1243.8 802.7l20.6 90-8.8-87.2-11.8-2.8z"/>
			<path class="st46" d="m1284.7 788.7l-20.3 46.7 0.1-13 20.2-33.7z"/>
			<path class="st47" d="m1264.4 835.4l30.2-52.3-9.8 5.6-20.4 46.7z"/>
	</g>
	<g transform="matrix(.24088 0 0 .24088 -54.157 80.151)">
			<path class="st30" d="m1341.4 681.5l60.1-27 97.6-7.5 66.1 10.5 16.5 45.1-1.5 88.6-33 54.1-51.1 16.5-75.1-1.5-48.1-49.6-15-64.6-16.5-64.6z"/>
			<path class="st48" d="m1462.3 860.6v111.5h28.4v-110.5l-28.4-1z"/>
			<ellipse class="st48" cx="1475.3" cy="971.6" rx="15.4" ry="10.1"/>
			<path class="st49" d="m1401.5 654.5l35.3 21.3-95.4 5.7 60.1-27z"/>
			<path class="st50" d="m1516.7 722.8l48.5-65.3 16.5 45.1-65 20.2z"/>
			<path class="st51" d="m1436.8 675.8l62.3-28.8-97.6 7.5 35.3 21.3z"/>
			<path class="st52" d="m1436.8 675.8l128.4-18.3-66.1-10.5-62.3 28.8z"/>
			<path class="st53" d="m1436.8 675.8l79.9 47 48.5-65.3-128.4 18.3z"/>
			<path class="st54" d="m1516.7 722.8l63.5 68.4 1.5-88.6-65 20.2z"/>
			<path class="st55" d="m1547.2 845.2l-30.5-122.4 63.5 68.4-33 54z"/>
			<path class="st56" d="m1427.5 752.8l-54.5 57.9 48.1 49.6 6.4-107.5z"/>
			<path class="st57" d="m1427.5 752.8l68.6 108.9-75.1-1.5 6.5-107.4z"/>
			<path class="st58" d="m1427.5 752.8l89.2-30-20.6 138.9-68.6-108.9z"/>
			<path class="st59" d="m1516.7 722.8l-20.6 138.9 51.1-16.5-30.5-122.4z"/>
			<path class="st60" d="m1372.9 810.7l-31.5-129.2 86.1 71.3-54.6 57.9z"/>
			<path class="st61" d="m1427.5 752.8l9.3-77 79.9 47-89.2 30z"/>
			<path class="st30" d="m1341.4 681.5l95.4-5.7-9.3 77-86.1-71.3z"/>
			<path class="st62" d="m1471.7 861.2l19 110.9v-110.5l-19-0.4z"/>
			<path class="st63" d="m1490.7 861.6l0.1 61.1-9.2-61.3 9.1 0.2z"/>
			<path class="st64" d="m1463.6 861.1l27.1 111-19-110.9-8.1-0.1z"/>
	</g>
	<g transform="matrix(.24088 0 0 .24088 -39.851 85.171)">
			<path class="st30" d="m1450.4 719.7l60.1-27 97.6-7.5 66.1 10.5 16.5 45.1-1.5 88.6-33 54.1-51.1 16.5-75.1-1.5-48.1-49.6-15-64.6-16.5-64.6z"/>
			<path class="st48" d="m1571.3 898.8v111.5h28.4v-110.4l-28.4-1.1z"/>
			<ellipse class="st48" cx="1584.3" cy="1009.9" rx="15.4" ry="10.1"/>
			<path class="st49" d="m1510.4 692.7l35.3 21.3-95.4 5.7 60.1-27z"/>
			<path class="st50" d="m1625.6 761l48.5-65.3 16.5 45.1-65 20.2z"/>
			<path class="st51" d="m1545.7 714l62.3-28.8-97.6 7.5 35.3 21.3z"/>
			<path class="st52" d="m1545.7 714l128.4-18.3-66.1-10.5-62.3 28.8z"/>
			<path class="st53" d="m1545.7 714l79.9 47 48.5-65.3-128.4 18.3z"/>
			<path class="st54" d="m1625.6 761l63.5 68.4 1.5-88.6-65 20.2z"/>
			<path class="st55" d="m1656.1 883.4l-30.5-122.4 63.5 68.4-33 54z"/>
			<path class="st56" d="m1536.4 791l-54.5 57.9 48.1 49.6 6.4-107.5z"/>
			<path class="st57" d="m1536.4 791l68.6 108.9-75.1-1.5 6.5-107.4z"/>
			<path class="st58" d="m1536.4 791l89.2-30-20.5 139-68.7-109z"/>
			<path class="st59" d="m1625.6 761l-20.5 139 51.1-16.5-30.6-122.5z"/>
			<path class="st60" d="m1481.9 848.9l-31.5-129.2 86.1 71.3-54.6 57.9z"/>
			<path class="st61" d="m1536.4 791l9.3-77 79.9 47-89.2 30z"/>
			<path class="st30" d="m1450.4 719.7l95.4-5.7-9.3 77-86.1-71.3z"/>
			<path class="st62" d="m1580.7 899.5l19 110.9v-110.5l-19-0.4z"/>
			<path class="st63" d="m1599.6 899.9l0.1 61.1-9.2-61.3 9.1 0.2z"/>
			<path class="st64" d="m1572.5 899.3l27.1 111-19-110.9-8.1-0.1z"/>
	</g>
	<g transform="matrix(.2602 0 0 .2602 .66461 67.084)">
			<path class="st30" d="m1856.2 613.5v106.1l-118.1 68.2-26.5-6.1-54.6-54.6v-150l64.3-28.9 110.4 21.4 24.5 43.9z"/>
			<path class="st31" d="m1726.3 784.9v90h20.6v-92.3l-8.8 5.1-11.8-2.8z"/>
			<path class="st32" d="m1746.9 804.6l20.3-33.7 9.8-5.6-30.2 52.3 0.1-13z"/>
			<ellipse class="st32" cx="1732.3" cy="875.9" rx="14.6" ry="10"/>
			<path class="st33" d="m1796.2 606l-75-57.9 110.4 21.4-35.4 36.5z"/>
			<path class="st34" d="m1656.9 577.1l139.3 28.9-75-57.9-64.3 29z"/>
			<path class="st35" d="m1831.5 569.6l24.6 43.9-60-7.5 35.4-36.4z"/>
			<path class="st36" d="m1796.2 606l-60.5 129.1-78.8-158 139.3 28.9z"/>
			<path class="st37" d="m1856.2 719.6l-120.5 15.5 60.5-129.1 60 113.6z"/>
			<path class="st38" d="m1856.2 613.5v106.1l-60-113.6 60 7.5z"/>
			<path class="st39" d="m1656.9 727.1l78.8 8-78.8-158v150z"/>
			<path class="st40" d="m1711.5 781.7l24.1-46.6-78.8-8 54.7 54.6z"/>
			<path class="st41" d="m1856.2 719.6l-118.1 68.2-2.4-52.7 120.5-15.5z"/>
			<path class="st42" d="m1711.5 781.7l26.5 6.1-2.4-52.7-24.1 46.6z"/>
			<path class="st43" d="m1738.1 787.8l8.8 16.8v-21.9l-8.8 5.1z"/>
			<path class="st44" d="m1738.1 787.8l8.8 87.2v-70.4l-8.8-16.8z"/>
			<path class="st45" d="m1726.3 784.9l20.6 90-8.8-87.2-11.8-2.8z"/>
			<path class="st46" d="m1767.1 770.9l-20.3 46.7 0.1-13 20.2-33.7z"/>
			<path class="st47" d="m1746.8 817.6l30.2-52.3-9.8 5.6-20.4 46.7z"/>
	</g>
	<g transform="matrix(.2602 0 0 .2602 26.857 70.078)">
			<path class="st30" d="m2040.9 634.6v106.1l-118.1 68.2-26.5-6.1-54.6-54.6v-150l64.3-28.9 110.4 21.4 24.5 43.9z"/>
			<path class="st31" d="m1910.9 806v90h20.6v-92.3l-8.8 5.1-11.8-2.8z"/>
			<path class="st32" d="m1931.6 825.7l20.3-33.7 9.8-5.6-30.2 52.3 0.1-13z"/>
			<ellipse class="st32" cx="1917" cy="897" rx="14.6" ry="10"/>
			<path class="st33" d="m1980.9 627.1l-75-57.9 110.4 21.4-35.4 36.5z"/>
			<path class="st34" d="m1841.6 598.2l139.3 28.9-75-57.9-64.3 29z"/>
			<path class="st35" d="m2016.2 590.7l24.6 43.9-60-7.5 35.4-36.4z"/>
			<path class="st36" d="m1980.9 627.1l-60.5 129.1-78.8-158 139.3 28.9z"/>
			<path class="st37" d="m2040.9 740.7l-120.5 15.5 60.5-129.1 60 113.6z"/>
			<path class="st38" d="m2040.9 634.6v106.1l-60-113.6 60 7.5z"/>
			<path class="st39" d="m1841.6 748.2l78.8 8-78.8-158v150z"/>
			<path class="st40" d="m1896.2 802.8l24.1-46.6-78.8-8 54.7 54.6z"/>
			<path class="st41" d="m2040.9 740.7l-118.1 68.2-2.4-52.7 120.5-15.5z"/>
			<path class="st42" d="m1896.2 802.8l26.5 6.1-2.4-52.7-24.1 46.6z"/>
			<path class="st43" d="m1922.7 808.9l8.8 16.8v-21.9l-8.8 5.1z"/>
			<path class="st44" d="m1922.7 808.9l8.8 87.2v-70.4l-8.8-16.8z"/>
			<path class="st45" d="m1910.9 806l20.6 90-8.8-87.2-11.8-2.8z"/>
			<path class="st46" d="m1951.8 792l-20.3 46.7 0.1-13 20.2-33.7z"/>
			<path class="st47" d="m1931.5 838.7l30.2-52.3-9.8 5.6-20.4 46.7z"/>
	</g>
	<g transform="matrix(.24088 0 0 .24088 -17.134 68.815)">
			<path class="st30" d="m1623.4 595.1l60.1-27 97.6-7.5 66.1 10.5 16.5 45.1-1.5 88.6-33 54.1-51.1 16.5-75.1-1.5-48.1-49.6-15-64.6-16.5-64.6z"/>
			<path class="st48" d="m1744.3 774.3v111.5h28.4v-110.5l-28.4-1z"/>
			<ellipse class="st48" cx="1757.3" cy="885.3" rx="15.4" ry="10.1"/>
			<path class="st49" d="m1683.5 568.1l35.3 21.3-95.4 5.7 60.1-27z"/>
			<path class="st50" d="m1798.7 636.4l48.5-65.3 16.5 45.1-65 20.2z"/>
			<path class="st51" d="m1718.7 589.4l62.3-28.8-97.6 7.5 35.3 21.3z"/>
			<path class="st52" d="m1718.7 589.4l128.4-18.3-66.1-10.5-62.3 28.8z"/>
			<path class="st53" d="m1718.7 589.4l79.9 47 48.5-65.3-128.4 18.3z"/>
			<path class="st54" d="m1798.7 636.4l63.5 68.4 1.5-88.6-65 20.2z"/>
			<path class="st55" d="m1829.2 758.9l-30.5-122.4 63.5 68.4-33 54z"/>
			<path class="st56" d="m1709.5 666.4l-54.5 57.9 48.1 49.6 6.4-107.5z"/>
			<path class="st57" d="m1709.5 666.4l68.6 108.9-75.1-1.5 6.5-107.4z"/>
			<path class="st58" d="m1709.5 666.4l89.2-30-20.6 138.9-68.6-108.9z"/>
			<path class="st59" d="m1798.7 636.4l-20.6 138.9 51.1-16.5-30.5-122.4z"/>
			<path class="st60" d="m1654.9 724.3l-31.5-129.2 86.1 71.3-54.6 57.9z"/>
			<path class="st61" d="m1709.5 666.4l9.3-77 79.9 47-89.2 30z"/>
			<path class="st30" d="m1623.4 595.1l95.4-5.7-9.3 77-86.1-71.3z"/>
			<path class="st62" d="m1753.7 774.9l19 110.9v-110.5l-19-0.4z"/>
			<path class="st63" d="m1772.6 775.3l0.1 61.1-9.2-61.3 9.1 0.2z"/>
			<path class="st64" d="m1745.6 774.7l27.1 111-19-110.9-8.1-0.1z"/>
	</g>
	<g transform="matrix(.24088 0 0 .24088 14.266 77.624)">
			<path class="st30" d="m1862.5 662.2l60.1-27 97.6-7.5 66.1 10.5 16.5 45.1-1.5 88.6-33 54.1-51.1 16.5-75.1-1.5-48.1-49.6-15-64.6-16.5-64.6z"/>
			<path class="st48" d="m1983.4 841.3v111.5h28.4v-110.4l-28.4-1.1z"/>
			<ellipse class="st48" cx="1996.5" cy="952.4" rx="15.4" ry="10.1"/>
			<path class="st49" d="m1922.6 635.2l35.3 21.3-95.4 5.7 60.1-27z"/>
			<path class="st50" d="m2037.8 703.5l48.5-65.3 16.5 45.1-65 20.2z"/>
			<path class="st51" d="m1957.9 656.5l62.3-28.8-97.6 7.5 35.3 21.3z"/>
			<path class="st52" d="m1957.9 656.5l128.4-18.3-66.1-10.5-62.3 28.8z"/>
			<path class="st53" d="m1957.9 656.5l79.9 47 48.5-65.3-128.4 18.3z"/>
			<path class="st54" d="m2037.8 703.5l63.5 68.4 1.5-88.6-65 20.2z"/>
			<path class="st55" d="m2068.3 826l-30.5-122.4 63.5 68.4-33 54z"/>
			<path class="st56" d="m1948.6 733.5l-54.5 57.9 48.1 49.6 6.4-107.5z"/>
			<path class="st57" d="m1948.6 733.5l68.6 108.9-75.1-1.5 6.5-107.4z"/>
			<path class="st58" d="m1948.6 733.5l89.2-30-20.6 138.9-68.6-108.9z"/>
			<path class="st59" d="m2037.8 703.5l-20.6 138.9 51.1-16.5-30.5-122.4z"/>
			<path class="st60" d="m1894.1 791.4l-31.5-129.2 86.1 71.3-54.6 57.9z"/>
			<path class="st61" d="m1948.6 733.5l9.3-77 79.9 47-89.2 30z"/>
			<path class="st30" d="m1862.5 662.2l95.4-5.7-9.3 77-86.1-71.3z"/>
			<path class="st62" d="m1992.8 842l19 110.9v-110.5l-19-0.4z"/>
			<path class="st63" d="m2011.8 842.4l0.1 61.1-9.2-61.3 9.1 0.2z"/>
			<path class="st64" d="m1984.7 841.8l27.1 111-19-110.9-8.1-0.1z"/>
	</g>
	<g transform="matrix(.24088 0 0 .24088 50.887 76.272)">
			<path class="st30" d="m2141.5 651.9l60.1-27 97.6-7.5 66.1 10.5 16.5 45.1-1.5 88.6-33 54.1-51.1 16.5-75.1-1.5-48.1-49.6-15-64.6-16.5-64.6z"/>
			<path class="st48" d="m2262.4 831.1v111.5h28.4v-110.5l-28.4-1z"/>
			<ellipse class="st48" cx="2275.4" cy="942.1" rx="15.4" ry="10.1"/>
			<path class="st49" d="m2201.5 624.9l35.3 21.3-95.4 5.7 60.1-27z"/>
			<path class="st50" d="m2316.8 693.2l48.5-65.3 16.5 45.1-65 20.2z"/>
			<path class="st51" d="m2236.8 646.2l62.3-28.8-97.6 7.5 35.3 21.3z"/>
			<path class="st52" d="m2236.8 646.2l128.4-18.3-66.1-10.5-62.3 28.8z"/>
			<path class="st53" d="m2236.8 646.2l79.9 47 48.5-65.3-128.4 18.3z"/>
			<path class="st54" d="m2316.8 693.2l63.5 68.4 1.5-88.6-65 20.2z"/>
			<path class="st55" d="m2347.2 815.7l-30.5-122.4 63.5 68.4-33 54z"/>
			<path class="st56" d="m2227.5 723.2l-54.5 57.9 48.1 49.6 6.4-107.5z"/>
			<path class="st57" d="m2227.5 723.2l68.6 108.9-75.1-1.5 6.5-107.4z"/>
			<path class="st58" d="m2227.5 723.2l89.2-30-20.6 138.9-68.6-108.9z"/>
			<path class="st59" d="m2316.8 693.2l-20.6 138.9 51.1-16.5-30.5-122.4z"/>
			<path class="st60" d="m2173 781.1l-31.5-129.2 86.1 71.3-54.6 57.9z"/>
			<path class="st61" d="m2227.5 723.2l9.3-77 79.9 47-89.2 30z"/>
			<path class="st30" d="m2141.5 651.9l95.4-5.7-9.3 77-86.1-71.3z"/>
			<path class="st62" d="m2271.8 831.7l19 110.9v-110.5l-19-0.4z"/>
			<path class="st63" d="m2290.7 832.1l0.1 61.1-9.2-61.3 9.1 0.2z"/>
			<path class="st64" d="m2263.7 831.5l27.1 111-19-110.9-8.1-0.1z"/>
	</g>
	<g transform="matrix(.23037 0 0 .23037 -27.169 47.68)">
			<path class="st30" d="m1821.7 499.3v106.1l-118.1 68.2-26.5-6.1-54.6-54.6v-150l64.3-28.9 110.4 21.4 24.5 43.9z"/>
			<path class="st31" d="m1691.8 670.7v90h20.6v-92.3l-8.8 5.1-11.8-2.8z"/>
			<path class="st32" d="m1712.4 690.4l20.3-33.7 9.8-5.6-30.2 52.3 0.1-13z"/>
			<ellipse class="st32" cx="1697.9" cy="761.7" rx="14.6" ry="10"/>
			<path class="st33" d="m1761.7 491.8l-75-57.9 110.4 21.4-35.4 36.5z"/>
			<path class="st34" d="m1622.5 462.9l139.3 28.9-75-57.9-64.3 29z"/>
			<path class="st35" d="m1797.1 455.4l24.6 43.9-60-7.5 35.4-36.4z"/>
			<path class="st36" d="m1761.7 491.8l-60.5 129.1-78.8-158 139.3 28.9z"/>
			<path class="st37" d="m1821.7 605.4l-120.5 15.5 60.5-129.1 60 113.6z"/>
			<path class="st38" d="m1821.7 499.3v106.1l-60-113.6 60 7.5z"/>
			<path class="st39" d="m1622.5 612.9l78.8 8-78.8-158v150z"/>
			<path class="st40" d="m1677.1 667.5l24.1-46.6-78.8-8 54.7 54.6z"/>
			<path class="st41" d="m1821.7 605.4l-118.1 68.2-2.4-52.7 120.5-15.5z"/>
			<path class="st42" d="m1677.1 667.5l26.5 6.1-2.4-52.7-24.1 46.6z"/>
			<path class="st43" d="m1703.6 673.6l8.8 16.8v-21.9l-8.8 5.1z"/>
			<path class="st44" d="m1703.6 673.6l8.8 87.2v-70.4l-8.8-16.8z"/>
			<path class="st45" d="m1691.8 670.7l20.6 90-8.8-87.2-11.8-2.8z"/>
			<path class="st46" d="m1732.7 656.7l-20.3 46.7 0.1-13 20.2-33.7z"/>
			<path class="st47" d="m1712.4 703.4l30.2-52.3-9.8 5.6-20.4 46.7z"/>
	</g>
	<g transform="matrix(.2602 0 0 .2602 -25.12 64.944)">
			<path class="st30" d="m1674.4 598.4v106.1l-118.1 68.2-26.5-6.1-54.6-54.6v-150l64.3-28.9 110.4 21.4 24.5 43.9z"/>
			<path class="st31" d="m1544.5 769.8v90h20.6v-92.3l-8.8 5.1-11.8-2.8z"/>
			<path class="st32" d="m1565.1 789.5l20.3-33.7 9.8-5.6-30.2 52.3 0.1-13z"/>
			<ellipse class="st32" cx="1550.5" cy="860.8" rx="14.6" ry="10"/>
			<path class="st33" d="m1614.4 590.9l-75-57.9 110.4 21.4-35.4 36.5z"/>
			<path class="st34" d="m1475.1 562l139.3 28.9-75-57.9-64.3 29z"/>
			<path class="st35" d="m1649.7 554.5l24.6 43.9-60-7.5 35.4-36.4z"/>
			<path class="st36" d="m1614.4 590.9l-60.6 129.1-78.8-158 139.4 28.9z"/>
			<path class="st37" d="m1674.4 704.5l-120.6 15.5 60.5-129.1 60.1 113.6z"/>
			<path class="st38" d="m1674.4 598.4v106.1l-60-113.6 60 7.5z"/>
			<path class="st39" d="m1475.1 712l78.8 8-78.8-158v150z"/>
			<path class="st40" d="m1529.7 766.6l24.1-46.6-78.8-8 54.7 54.6z"/>
			<path class="st41" d="m1674.4 704.5l-118.1 68.2-2.4-52.7 120.5-15.5z"/>
			<path class="st42" d="m1529.7 766.6l26.5 6.1-2.4-52.7-24.1 46.6z"/>
			<path class="st43" d="m1556.3 772.7l8.8 16.8v-21.9l-8.8 5.1z"/>
			<path class="st44" d="m1556.3 772.7l8.8 87.2v-70.4l-8.8-16.8z"/>
			<path class="st45" d="m1544.5 769.8l20.6 90-8.8-87.2-11.8-2.8z"/>
			<path class="st46" d="m1585.3 755.8l-20.3 46.7 0.1-13 20.2-33.7z"/>
			<path class="st47" d="m1565 802.5l30.2-52.3-9.8 5.6-20.4 46.7z"/>
	</g>
	<g transform="matrix(.2602 0 0 .2602 -14.301 75.487)">
			<path class="st30" d="m1750.7 672.7v106.1l-118.2 68.2-26.5-6.1-54.6-54.6v-150l64.3-28.9 110.4 21.4 24.6 43.9z"/>
			<path class="st31" d="m1620.7 844.2v90h20.6v-92.3l-8.8 5.1-11.8-2.8z"/>
			<path class="st32" d="m1641.4 863.8l20.3-33.7 9.8-5.6-30.2 52.3 0.1-13z"/>
			<ellipse class="st32" cx="1626.8" cy="935.1" rx="14.6" ry="10"/>
			<path class="st33" d="m1690.7 665.2l-75-57.9 110.4 21.4-35.4 36.5z"/>
			<path class="st34" d="m1551.4 636.3l139.3 28.9-75-57.9-64.3 29z"/>
			<path class="st35" d="m1726 628.8l24.6 43.9-60-7.5 35.4-36.4z"/>
			<path class="st36" d="m1690.7 665.2l-60.5 129.1-78.8-158 139.3 28.9z"/>
			<path class="st37" d="m1750.7 778.8l-120.5 15.5 60.5-129.1 60 113.6z"/>
			<path class="st38" d="m1750.7 672.7v106.1l-60-113.6 60 7.5z"/>
			<path class="st39" d="m1551.4 786.3l78.8 8-78.8-158v150z"/>
			<path class="st40" d="m1606 840.9l24.1-46.6-78.8-8 54.7 54.6z"/>
			<path class="st41" d="m1750.7 778.8l-118.2 68.2-2.4-52.7 120.6-15.5z"/>
			<path class="st42" d="m1606 840.9l26.5 6.1-2.4-52.7-24.1 46.6z"/>
			<path class="st43" d="m1632.5 847l8.8 16.8v-21.9l-8.8 5.1z"/>
			<path class="st44" d="m1632.5 847l8.8 87.2v-70.4l-8.8-16.8z"/>
			<path class="st45" d="m1620.7 844.2l20.6 90-8.8-87.2-11.8-2.8z"/>
			<path class="st46" d="m1661.6 830.1l-20.3 46.7 0.1-13 20.2-33.7z"/>
			<path class="st47" d="m1641.3 876.8l30.2-52.3-9.8 5.6-20.4 46.7z"/>
	</g>
	<g transform="matrix(.24088 0 0 .24088 40.458 80.617)">
			<path class="st30" d="m2062 685l60.1-27 97.6-7.5 66.1 10.5 16.5 45.1-1.5 88.6-33 54.1-51.1 16.5-75.1-1.5-48.1-49.6-15-64.6-16.5-64.6z"/>
			<path class="st48" d="m2182.9 864.1v111.5h28.4v-110.4l-28.4-1.1z"/>
			<ellipse class="st48" cx="2196" cy="975.2" rx="15.4" ry="10.1"/>
			<path class="st49" d="m2122.1 658l35.3 21.3-95.4 5.7 60.1-27z"/>
			<path class="st50" d="m2237.3 726.3l48.5-65.3 16.5 45.1-65 20.2z"/>
			<path class="st51" d="m2157.4 679.3l62.3-28.8-97.6 7.5 35.3 21.3z"/>
			<path class="st52" d="m2157.4 679.3l128.4-18.3-66.1-10.5-62.3 28.8z"/>
			<path class="st53" d="m2157.4 679.3l79.9 47 48.5-65.3-128.4 18.3z"/>
			<path class="st54" d="m2237.3 726.3l63.5 68.4 1.5-88.6-65 20.2z"/>
			<path class="st55" d="m2267.8 848.8l-30.5-122.4 63.5 68.4-33 54z"/>
			<path class="st56" d="m2148.1 756.3l-54.5 57.9 48.1 49.6 6.4-107.5z"/>
			<path class="st57" d="m2148.1 756.3l68.6 108.9-75.1-1.5 6.5-107.4z"/>
			<path class="st58" d="m2148.1 756.3l89.2-30-20.6 138.9-68.6-108.9z"/>
			<path class="st59" d="m2237.3 726.3l-20.6 138.9 51.1-16.5-30.5-122.4z"/>
			<path class="st60" d="m2093.6 814.2l-31.6-129.2 86.1 71.3-54.5 57.9z"/>
			<path class="st61" d="m2148.1 756.3l9.3-77 79.9 47-89.2 30z"/>
			<path class="st30" d="m2062 685l95.4-5.7-9.3 77-86.1-71.3z"/>
			<path class="st62" d="m2192.3 864.8l19 110.9v-110.5l-19-0.4z"/>
			<path class="st63" d="m2211.3 865.2l0.1 61.1-9.2-61.3 9.1 0.2z"/>
			<path class="st64" d="m2184.2 864.6l27.1 111-19-110.9-8.1-0.1z"/>
	</g>
	<g transform="matrix(.22796 0 0 .24188 -63.437 79.922)">
			<path class="st30" d="m1544.8 734.5v106.1l-118.1 68.2-26.5-6.1-54.6-54.6v-150.1l64.3-28.9 110.4 21.4 24.5 44z"/>
			<path class="st31" d="m1414.8 905.9v90h20.6v-92.3l-8.8 5.1-11.8-2.8z"/>
			<path class="st32" d="m1435.5 925.5l20.3-33.7 9.8-5.6-30.2 52.3 0.1-13z"/>
			<ellipse class="st32" cx="1420.9" cy="996.8" rx="14.6" ry="10"/>
			<path class="st33" d="m1484.8 727l-75-57.9 110.4 21.4-35.4 36.5z"/>
			<path class="st34" d="m1345.5 698l139.3 28.9-75-57.9-64.3 29z"/>
			<path class="st35" d="m1520.1 690.5l24.6 43.9-60-7.5 35.4-36.4z"/>
			<path class="st36" d="m1484.8 727l-60.5 129.1-78.8-158 139.3 28.9z"/>
			<path class="st37" d="m1544.8 840.5l-120.5 15.5 60.5-129.1 60 113.6z"/>
			<path class="st38" d="m1544.8 734.5v106.1l-60-113.6 60 7.5z"/>
			<path class="st39" d="m1345.5 848l78.8 8-78.8-158v150z"/>
			<path class="st40" d="m1400.1 902.7l24.1-46.6-78.8-8 54.7 54.6z"/>
			<path class="st41" d="m1544.8 840.5l-118.1 68.2-2.4-52.7 120.5-15.5z"/>
			<path class="st42" d="m1400.1 902.7l26.5 6.1-2.4-52.7-24.1 46.6z"/>
			<path class="st43" d="m1426.6 908.7l8.8 16.8v-21.9l-8.8 5.1z"/>
			<path class="st44" d="m1426.6 908.7l8.8 87.2v-70.4l-8.8-16.8z"/>
			<path class="st45" d="m1414.8 905.9l20.6 90-8.8-87.2-11.8-2.8z"/>
			<path class="st46" d="m1455.7 891.9l-20.3 46.7 0.1-13 20.2-33.7z"/>
			<path class="st47" d="m1435.4 938.6l30.2-52.3-9.8 5.6-20.4 46.7z"/>
	</g>
	<g transform="matrix(.24088 0 0 .24088 -54.503 87.825)">
			<path class="st30" d="m1338.8 739.9l60.1-27 97.6-7.5 66.1 10.5 16.5 45.1-1.5 88.6-33 54.1-51.1 16.5-75.1-1.5-48.1-49.6-15-64.6-16.5-64.6z"/>
			<path class="st48" d="m1459.7 919v111.5h28.4v-110.4l-28.4-1.1z"/>
			<ellipse class="st48" cx="1472.7" cy="1030.1" rx="15.4" ry="10.1"/>
			<path class="st49" d="m1398.8 712.9l35.3 21.3-95.4 5.7 60.1-27z"/>
			<path class="st50" d="m1514 781.2l48.5-65.3 16.5 45.1-65 20.2z"/>
			<path class="st51" d="m1434.1 734.2l62.3-28.8-97.6 7.5 35.3 21.3z"/>
			<path class="st52" d="m1434.1 734.2l128.4-18.3-66.1-10.5-62.3 28.8z"/>
			<path class="st53" d="m1434.1 734.2l79.9 47 48.5-65.3-128.4 18.3z"/>
			<path class="st54" d="m1514 781.2l63.5 68.4 1.5-88.6-65 20.2z"/>
			<path class="st55" d="m1544.5 903.6l-30.5-122.4 63.5 68.4-33 54z"/>
			<path class="st56" d="m1424.8 811.2l-54.5 57.9 48.1 49.6 6.4-107.5z"/>
			<path class="st57" d="m1424.8 811.2l68.6 108.9-75.1-1.5 6.5-107.4z"/>
			<path class="st58" d="m1424.8 811.2l89.2-30-20.6 138.9-68.6-108.9z"/>
			<path class="st59" d="m1514 781.2l-20.6 138.9 51.1-16.5-30.5-122.4z"/>
			<path class="st60" d="m1370.3 869.1l-31.5-129.2 86.1 71.3-54.6 57.9z"/>
			<path class="st61" d="m1424.8 811.2l9.3-77 79.9 47-89.2 30z"/>
			<path class="st30" d="m1338.8 739.9l95.4-5.7-9.3 77-86.1-71.3z"/>
			<path class="st62" d="m1469.1 919.7l19 110.9v-110.5l-19-0.4z"/>
			<path class="st63" d="m1488 920.1l0.1 61.1-9.2-61.3 9.1 0.2z"/>
			<path class="st64" d="m1460.9 919.5l27.1 111-19-110.9-8.1-0.1z"/>
	</g>
	<g transform="matrix(.24088 0 0 .24088 -81.58 78.989)">
			<path class="st30" d="m1132.5 672.6l60.1-27 97.6-7.5 66.1 10.5 16.5 45.1-1.5 88.6-33 54.1-51.1 16.5-75.1-1.5-48.1-49.6-15-64.6-16.5-64.6z"/>
			<path class="st48" d="m1253.4 851.7v111.5h28.4v-110.4l-28.4-1.1z"/>
			<ellipse class="st48" cx="1266.5" cy="962.8" rx="15.4" ry="10.1"/>
			<path class="st49" d="m1192.6 645.6l35.3 21.3-95.4 5.7 60.1-27z"/>
			<path class="st50" d="m1307.8 713.9l48.5-65.3 16.5 45.1-65 20.2z"/>
			<path class="st51" d="m1227.9 666.9l62.3-28.8-97.6 7.5 35.3 21.3z"/>
			<path class="st52" d="m1227.9 666.9l128.4-18.3-66.1-10.5-62.3 28.8z"/>
			<path class="st53" d="m1227.9 666.9l79.9 47 48.5-65.3-128.4 18.3z"/>
			<path class="st54" d="m1307.8 713.9l63.5 68.4 1.5-88.6-65 20.2z"/>
			<path class="st55" d="m1338.3 836.3l-30.5-122.4 63.5 68.4-33 54z"/>
			<path class="st56" d="m1218.6 743.9l-54.5 57.9 48.1 49.6 6.4-107.5z"/>
			<path class="st57" d="m1218.6 743.9l68.6 108.9-75.1-1.5 6.5-107.4z"/>
			<path class="st58" d="m1218.6 743.9l89.2-30-20.6 138.9-68.6-108.9z"/>
			<path class="st59" d="m1307.8 713.9l-20.6 138.9 51.1-16.5-30.5-122.4z"/>
			<path class="st60" d="m1164.1 801.8l-31.5-129.2 86.1 71.3-54.6 57.9z"/>
			<path class="st61" d="m1218.6 743.9l9.3-77 79.9 47-89.2 30z"/>
			<path class="st30" d="m1132.5 672.6l95.4-5.7-9.3 77-86.1-71.3z"/>
			<path class="st62" d="m1262.8 852.4l19 110.9v-110.5l-19-0.4z"/>
			<path class="st63" d="m1281.8 852.8l0.1 61.1-9.2-61.3 9.1 0.2z"/>
			<path class="st64" d="m1254.7 852.2l27.1 111-19-110.9-8.1-0.1z"/>
	</g>
	<g transform="matrix(.2602 0 0 .2602 -118.46 71.808)">
			<path class="st30" d="m1016.3 646.8v106.1l-118.1 68.2-26.5-6.1-54.7-54.6v-150l64.3-28.9 110.4 21.4 24.6 43.9z"/>
			<path class="st31" d="m886.4 818.2v90h20.6v-92.3l-8.8 5.1-11.8-2.8z"/>
			<path class="st32" d="m907 837.9l20.3-33.7 9.8-5.6-30.2 52.3 0.1-13z"/>
			<ellipse class="st32" cx="892.4" cy="909.2" rx="14.6" ry="10"/>
			<path class="st33" d="m956.3 639.3l-75-57.9 110.4 21.4-35.4 36.5z"/>
			<path class="st34" d="m817 610.4l139.3 28.9-75-57.9-64.3 29z"/>
			<path class="st35" d="m991.6 602.9l24.6 43.9-60-7.5 35.4-36.4z"/>
			<path class="st36" d="m956.3 639.3l-60.5 129.1-78.8-158 139.3 28.9z"/>
			<path class="st37" d="m1016.3 752.9l-120.5 15.5 60.5-129.1 60 113.6z"/>
			<path class="st38" d="m1016.3 646.8v106.1l-60-113.6 60 7.5z"/>
			<path class="st39" d="m817 760.4l78.8 8-78.8-158v150z"/>
			<path class="st40" d="m871.6 815l24.1-46.6-78.8-8 54.7 54.6z"/>
			<path class="st41" d="m1016.3 752.9l-118.1 68.2-2.4-52.7 120.5-15.5z"/>
			<path class="st42" d="m871.6 815l26.5 6.1-2.4-52.7-24.1 46.6z"/>
			<path class="st43" d="m898.1 821.1l8.8 16.8v-21.9l-8.8 5.1z"/>
			<path class="st44" d="m898.1 821.1l8.8 87.2v-70.4l-8.8-16.8z"/>
			<path class="st45" d="m886.4 818.2l20.6 90-8.8-87.2-11.8-2.8z"/>
			<path class="st46" d="m927.2 804.2l-20.3 46.7 0.1-13 20.2-33.7z"/>
			<path class="st47" d="m906.9 850.9l30.2-52.3-9.8 5.6-20.4 46.7z"/>
	</g>
	<g transform="matrix(.2602 0 0 .2602 -123.11 81.869)">
			<path class="st30" d="m983.4 717.7v106.1l-118.1 68.2-26.5-6.1-54.6-54.6v-150l64.3-28.9 110.4 21.4 24.5 43.9z"/>
			<path class="st31" d="m853.5 889.2v90h20.6v-92.3l-8.8 5.1-11.8-2.8z"/>
			<path class="st32" d="m874.1 908.8l20.3-33.7 9.8-5.6-30.2 52.3 0.1-13z"/>
			<ellipse class="st32" cx="859.6" cy="980.1" rx="14.6" ry="10"/>
			<path class="st33" d="m923.4 710.2l-75-57.9 110.4 21.4-35.4 36.5z"/>
			<path class="st34" d="m784.1 681.3l139.3 28.9-75-57.9-64.3 29z"/>
			<path class="st35" d="m958.8 673.8l24.6 43.9-60-7.5 35.4-36.4z"/>
			<path class="st36" d="m923.4 710.2l-60.5 129.1-78.8-158 139.3 28.9z"/>
			<path class="st37" d="m983.4 823.8l-120.5 15.5 60.5-129.1 60 113.6z"/>
			<path class="st38" d="m983.4 717.7v106.1l-60-113.6 60 7.5z"/>
			<path class="st39" d="m784.1 831.3l78.8 8-78.8-158v150z"/>
			<path class="st40" d="m838.8 886l24.1-46.6-78.8-8 54.7 54.6z"/>
			<path class="st41" d="m983.4 823.8l-118.1 68.2-2.4-52.7 120.5-15.5z"/>
			<path class="st42" d="m838.8 886l26.5 6.1-2.4-52.7-24.1 46.6z"/>
			<path class="st43" d="m865.3 892l8.8 16.8v-21.9l-8.8 5.1z"/>
			<path class="st44" d="m865.3 892l8.8 87.2v-70.4l-8.8-16.8z"/>
			<path class="st45" d="m853.5 889.2l20.6 90-8.8-87.2-11.8-2.8z"/>
			<path class="st46" d="m894.4 875.1l-20.3 46.7 0.1-13 20.2-33.7z"/>
			<path class="st47" d="m874.1 921.8l30.2-52.3-9.8 5.6-20.4 46.7z"/>
	</g>
	<g transform="matrix(.24088 0 0 .24088 -99.646 80.022)">
			<path class="st30" d="m994.9 680.5l60.1-27 97.6-7.5 66.1 10.5 16.5 45.1-1.5 88.6-33 54.1-51.1 16.5-75.1-1.5-48.1-49.6-15-64.6-16.5-64.6z"/>
			<path class="st48" d="m1115.8 859.6v111.5h28.4v-110.4l-28.4-1.1z"/>
			<ellipse class="st48" cx="1128.9" cy="970.7" rx="15.4" ry="10.1"/>
			<path class="st49" d="m1055 653.5l35.3 21.3-95.4 5.7 60.1-27z"/>
			<path class="st50" d="m1170.2 721.8l48.5-65.3 16.5 45.1-65 20.2z"/>
			<path class="st51" d="m1090.3 674.8l62.3-28.8-97.6 7.5 35.3 21.3z"/>
			<path class="st52" d="m1090.3 674.8l128.4-18.3-66.1-10.5-62.3 28.8z"/>
			<path class="st53" d="m1090.3 674.8l79.9 47 48.5-65.3-128.4 18.3z"/>
			<path class="st54" d="m1170.2 721.8l63.5 68.4 1.5-88.6-65 20.2z"/>
			<path class="st55" d="m1200.7 844.2l-30.5-122.4 63.5 68.4-33 54z"/>
			<path class="st56" d="m1081 751.8l-54.5 57.9 48.1 49.6 6.4-107.5z"/>
			<path class="st57" d="m1081 751.8l68.6 108.9-75.1-1.5 6.5-107.4z"/>
			<path class="st58" d="m1081 751.8l89.2-30-20.6 138.9-68.6-108.9z"/>
			<path class="st59" d="m1170.2 721.8l-20.6 138.9 51.1-16.5-30.5-122.4z"/>
			<path class="st60" d="m1026.5 809.7l-31.5-129.2 86.1 71.3-54.6 57.9z"/>
			<path class="st61" d="m1081 751.8l9.3-77 79.9 47-89.2 30z"/>
			<path class="st30" d="m994.9 680.5l95.4-5.7-9.3 77-86.1-71.3z"/>
			<path class="st62" d="m1125.2 860.3l19 110.9v-110.5l-19-0.4z"/>
			<path class="st63" d="m1144.2 860.7l0.1 61.1-9.2-61.3 9.1 0.2z"/>
			<path class="st64" d="m1117.1 860.1l27.1 111-19-110.9-8.1-0.1z"/>
	</g>
	<g transform="matrix(.2602 0 0 .2602 -89.579 83.233)">
			<path class="st30" d="m1219.9 727.4v106.1l-118.1 68.2-26.5-6.1-54.6-54.6v-150l64.3-28.9 110.4 21.4 24.5 43.9z"/>
			<path class="st31" d="m1090 898.8v90h20.6v-92.3l-8.8 5.1-11.8-2.8z"/>
			<path class="st32" d="m1110.6 918.4l20.3-33.7 9.8-5.6-30.2 52.3 0.1-13z"/>
			<ellipse class="st32" cx="1096" cy="989.7" rx="14.6" ry="10"/>
			<path class="st33" d="m1159.9 719.9l-75-57.9 110.4 21.4-35.4 36.5z"/>
			<path class="st34" d="m1020.6 690.9l139.3 28.9-75-57.9-64.3 29z"/>
			<path class="st35" d="m1195.2 683.4l24.6 43.9-60-7.5 35.4-36.4z"/>
			<path class="st36" d="m1159.9 719.9l-60.6 129.1-78.7-158 139.3 28.9z"/>
			<path class="st37" d="m1219.9 833.4l-120.6 15.6 60.5-129.1 60.1 113.5z"/>
			<path class="st38" d="m1219.9 727.4v106.1l-60-113.6 60 7.5z"/>
			<path class="st39" d="m1020.6 840.9l78.7 8-78.7-158v150z"/>
			<path class="st40" d="m1075.2 895.6l24.1-46.6-78.7-8 54.6 54.6z"/>
			<path class="st41" d="m1219.9 833.4l-118.1 68.2-2.4-52.7 120.5-15.5z"/>
			<path class="st42" d="m1075.2 895.6l26.5 6.1-2.4-52.7-24.1 46.6z"/>
			<path class="st43" d="m1101.8 901.6l8.8 16.8v-21.9l-8.8 5.1z"/>
			<path class="st44" d="m1101.8 901.6l8.8 87.2v-70.4l-8.8-16.8z"/>
			<path class="st45" d="m1090 898.8l20.6 90-8.8-87.2-11.8-2.8z"/>
			<path class="st46" d="m1130.8 884.8l-20.3 46.7 0.1-13 20.2-33.7z"/>
			<path class="st47" d="m1110.5 931.5l30.2-52.3-9.8 5.6-20.4 46.7z"/>
	</g>
	<g transform="matrix(.24088 0 0 .24088 -109.51 92.408)">
			<path class="st30" d="m919.8 774.8l60.1-27 97.6-7.5 66.1 10.5 16.5 45.1-1.5 88.6-33 54.1-51.1 16.5-75.1-1.5-48.1-49.6-15-64.6-16.5-64.6z"/>
			<path class="st48" d="m1040.7 954v111.5h28.4v-110.5l-28.4-1z"/>
			<ellipse class="st48" cx="1053.7" cy="1065" rx="15.4" ry="10.1"/>
			<path class="st49" d="m979.9 747.8l35.3 21.3-95.4 5.7 60.1-27z"/>
			<path class="st50" d="m1095.1 816.1l48.5-65.3 16.5 45.1-65 20.2z"/>
			<path class="st51" d="m1015.2 769.1l62.3-28.8-97.6 7.5 35.3 21.3z"/>
			<path class="st52" d="m1015.2 769.1l128.4-18.3-66.1-10.5-62.3 28.8z"/>
			<path class="st53" d="m1015.2 769.1l79.9 47 48.5-65.3-128.4 18.3z"/>
			<path class="st54" d="m1095.1 816.1l63.5 68.4 1.5-88.6-65 20.2z"/>
			<path class="st55" d="m1125.6 938.6l-30.5-122.4 63.5 68.4-33 54z"/>
			<path class="st56" d="m1005.9 846.1l-54.6 57.9 48.1 49.6 6.5-107.5z"/>
			<path class="st57" d="m1005.9 846.1l68.6 108.9-75.1-1.5 6.5-107.4z"/>
			<path class="st58" d="m1005.9 846.1l89.2-30-20.6 138.9-68.6-108.9z"/>
			<path class="st59" d="m1095.1 816.1l-20.6 138.9 51.1-16.5-30.5-122.4z"/>
			<path class="st60" d="m951.3 904l-31.5-129.2 86.1 71.3-54.6 57.9z"/>
			<path class="st61" d="m1005.9 846.1l9.3-77 79.9 47-89.2 30z"/>
			<path class="st30" d="m919.8 774.8l95.4-5.7-9.3 77-86.1-71.3z"/>
			<path class="st62" d="m1050.1 954.6l19 110.9v-110.5l-19-0.4z"/>
			<path class="st63" d="m1069.1 955l0.1 61.1-9.2-61.3 9.1 0.2z"/>
			<path class="st64" d="m1042 954.4l27.1 111-19-110.9-8.1-0.1z"/>
	</g>
	<g transform="matrix(.24088 0 0 .24088 -70.782 91.823)">
			<path class="st30" d="m1214.8 770.4l60.1-27 97.6-7.5 66.1 10.5 16.5 45.1-1.5 88.6-33 54.1-51.1 16.5-75.1-1.5-48.1-49.6-15-64.6-16.5-64.6z"/>
			<path class="st48" d="m1335.7 949.5v111.5h28.4v-110.5l-28.4-1z"/>
			<ellipse class="st48" cx="1348.7" cy="1060.5" rx="15.4" ry="10.1"/>
			<path class="st49" d="m1274.8 743.4l35.3 21.3-95.4 5.7 60.1-27z"/>
			<path class="st50" d="m1390.1 811.7l48.5-65.3 16.5 45.1-65 20.2z"/>
			<path class="st51" d="m1310.1 764.7l62.3-28.8-97.6 7.5 35.3 21.3z"/>
			<path class="st52" d="m1310.1 764.7l128.4-18.3-66.1-10.5-62.3 28.8z"/>
			<path class="st53" d="m1310.1 764.7l79.9 47 48.5-65.3-128.4 18.3z"/>
			<path class="st54" d="m1390.1 811.7l63.5 68.4 1.5-88.6-65 20.2z"/>
			<path class="st55" d="m1420.5 934.1l-30.5-122.4 63.5 68.4-33 54z"/>
			<path class="st56" d="m1300.8 841.7l-54.5 57.9 48.1 49.6 6.4-107.5z"/>
			<path class="st57" d="m1300.8 841.7l68.6 108.9-75.1-1.5 6.5-107.4z"/>
			<path class="st58" d="m1300.8 841.7l89.2-30-20.6 138.9-68.6-108.9z"/>
			<path class="st59" d="m1390.1 811.7l-20.6 138.9 51.1-16.5-30.5-122.4z"/>
			<path class="st60" d="m1246.3 899.6l-31.5-129.2 86.1 71.3-54.6 57.9z"/>
			<path class="st61" d="m1300.8 841.7l9.3-77 79.9 47-89.2 30z"/>
			<path class="st30" d="m1214.8 770.4l95.4-5.7-9.3 77-86.1-71.3z"/>
			<path class="st62" d="m1345.1 950.1l19 110.9v-110.5l-19-0.4z"/>
			<path class="st63" d="m1364 950.5l0.1 61.1-9.2-61.3 9.1 0.2z"/>
			<path class="st64" d="m1336.9 950l27.1 111-19-110.9-8.1-0.1z"/>
	</g>
	<g transform="matrix(.2602 0 0 .2602 -51.67 94.496)">
			<path class="st30" d="m1487.2 806.8v106.1l-118.2 68.1-26.5-6.1-54.6-54.6v-150l64.3-28.9 110.4 21.4 24.6 44z"/>
			<path class="st31" d="m1357.3 978.2v90h20.6v-92.3l-8.8 5.1-11.8-2.8z"/>
			<path class="st32" d="m1377.9 997.8l20.3-33.7 9.8-5.6-30.2 52.3 0.1-13z"/>
			<ellipse class="st32" cx="1363.3" cy="1069.1" rx="14.6" ry="10"/>
			<path class="st33" d="m1427.2 799.3l-75-57.9 110.4 21.4-35.4 36.5z"/>
			<path class="st34" d="m1287.9 770.3l139.3 28.9-75-57.9-64.3 29z"/>
			<path class="st35" d="m1462.5 762.8l24.6 43.9-60-7.5 35.4-36.4z"/>
			<path class="st36" d="m1427.2 799.3l-60.5 129.1-78.8-158 139.3 28.9z"/>
			<path class="st37" d="m1487.2 912.8l-120.5 15.5 60.5-129.1 60 113.6z"/>
			<path class="st38" d="m1487.2 806.8v106.1l-60-113.6 60 7.5z"/>
			<path class="st39" d="m1287.9 920.3l78.8 8-78.8-158v150z"/>
			<path class="st40" d="m1342.5 975l24.1-46.6-78.8-8 54.7 54.6z"/>
			<path class="st41" d="m1487.2 912.8l-118.2 68.2-2.4-52.7 120.6-15.5z"/>
			<path class="st42" d="m1342.5 975l26.5 6.1-2.4-52.7-24.1 46.6z"/>
			<path class="st43" d="m1369 981l8.8 16.8v-21.9l-8.8 5.1z"/>
			<path class="st44" d="m1369 981l8.8 87.2v-70.4l-8.8-16.8z"/>
			<path class="st45" d="m1357.3 978.2l20.6 90-8.9-87.2-11.7-2.8z"/>
			<path class="st46" d="m1398.1 964.2l-20.3 46.7 0.1-13 20.2-33.7z"/>
			<path class="st47" d="m1377.8 1010.9l30.2-52.3-9.8 5.6-20.4 46.7z"/>
	</g>
	<g transform="matrix(.24088 0 0 .24088 -89.255 99.477)">
			<path class="st30" d="m1074.1 828.7l60.1-27 97.6-7.5 66.1 10.5 16.5 45.1-1.5 88.6-33 54.1-51.1 16.5-75.1-1.5-48.1-49.6-15-64.6-16.5-64.6z"/>
			<path class="st48" d="m1195 1007.8v111.5h28.4v-110.5l-28.4-1z"/>
			<ellipse class="st48" cx="1208" cy="1118.8" rx="15.4" ry="10.1"/>
			<path class="st49" d="m1134.1 801.6l35.3 21.3-95.4 5.7 60.1-27z"/>
			<path class="st50" d="m1249.4 870l48.5-65.3 16.5 45.1-65 20.2z"/>
			<path class="st51" d="m1169.4 823l62.3-28.8-97.6 7.5 35.3 21.3z"/>
			<path class="st52" d="m1169.4 823l128.4-18.3-66.1-10.5-62.3 28.8z"/>
			<path class="st53" d="m1169.4 823l79.9 47 48.5-65.3-128.4 18.3z"/>
			<path class="st54" d="m1249.4 870l63.5 68.4 1.5-88.6-65 20.2z"/>
			<path class="st55" d="m1279.8 992.4l-30.4-122.4 63.5 68.4-33.1 54z"/>
			<path class="st56" d="m1160.1 900l-54.5 57.9 48.1 49.6 6.4-107.5z"/>
			<path class="st57" d="m1160.1 900l68.6 108.9-75.1-1.5 6.5-107.4z"/>
			<path class="st58" d="m1160.1 900l89.2-30-20.6 138.9-68.6-108.9z"/>
			<path class="st59" d="m1249.4 870l-20.6 138.9 51.1-16.5-30.5-122.4z"/>
			<path class="st60" d="m1105.6 957.9l-31.5-129.2 86.1 71.3-54.6 57.9z"/>
			<path class="st61" d="m1160.1 900l9.3-77 79.9 47-89.2 30z"/>
			<path class="st30" d="m1074.1 828.7l95.4-5.7-9.3 77-86.1-71.3z"/>
			<path class="st62" d="m1204.4 1008.4l19 110.9v-110.5l-19-0.4z"/>
			<path class="st63" d="m1223.3 1008.8l0.1 61.1-9.2-61.3 9.1 0.2z"/>
			<path class="st64" d="m1196.2 1008.3l27.1 111-19-110.9-8.1-0.1z"/>
	</g>
	<g transform="matrix(.2602 0 0 .2602 -70.359 98.495)">
			<path class="st30" d="m1355.4 835v106l-118.1 68.2-26.5-6.1-54.6-54.6v-150l64.3-28.9 110.4 21.4 24.5 44z"/>
			<path class="st31" d="m1225.5 1006.4v90h20.6v-92.3l-8.8 5.1-11.8-2.8z"/>
			<path class="st32" d="m1246.1 1026l20.3-33.7 9.8-5.6-30.2 52.3 0.1-13z"/>
			<ellipse class="st32" cx="1231.5" cy="1097.3" rx="14.6" ry="10"/>
			<path class="st33" d="m1295.4 827.5l-75-57.9 110.4 21.4-35.4 36.5z"/>
			<path class="st34" d="m1156.1 798.5l139.3 28.9-75-57.9-64.3 29z"/>
			<path class="st35" d="m1330.8 791l24.6 43.9-60-7.5 35.4-36.4z"/>
			<path class="st36" d="m1295.4 827.5l-60.5 129.1-78.8-158 139.3 28.9z"/>
			<path class="st37" d="m1355.4 941l-120.5 15.5 60.5-129.1 60 113.6z"/>
			<path class="st38" d="m1355.4 835v106l-60-113.6 60 7.6z"/>
			<path class="st39" d="m1156.1 948.5l78.8 8-78.8-158v150z"/>
			<path class="st40" d="m1210.8 1003.2l24.1-46.6-78.8-8 54.7 54.6z"/>
			<path class="st41" d="m1355.4 941l-118.1 68.2-2.4-52.7 120.5-15.5z"/>
			<path class="st42" d="m1210.8 1003.2l26.5 6.1-2.4-52.7-24.1 46.6z"/>
			<path class="st43" d="m1237.3 1009.2l8.8 16.8v-21.9l-8.8 5.1z"/>
			<path class="st44" d="m1237.3 1009.2l8.8 87.2v-70.4l-8.8-16.8z"/>
			<path class="st45" d="m1225.5 1006.4l20.6 90-8.8-87.2-11.8-2.8z"/>
			<path class="st46" d="m1266.4 992.4l-20.3 46.7 0.1-13 20.2-33.7z"/>
			<path class="st47" d="m1246 1039.1l30.2-52.3-9.8 5.6-20.4 46.7z"/>
	</g>
	<g transform="matrix(.2602 0 0 .2602 -56.326 104.56)">
			<path class="st30" d="m1454.3 877.7v106.1l-118.1 68.2-26.5-6.1-54.6-54.6v-150l64.3-28.9 110.4 21.4 24.5 43.9z"/>
			<path class="st31" d="m1324.4 1049.1v90h20.6v-92.3l-8.8 5.1-11.8-2.8z"/>
			<path class="st32" d="m1345 1068.8l20.3-33.7 9.8-5.6-30.2 52.3 0.1-13z"/>
			<ellipse class="st32" cx="1330.5" cy="1140.1" rx="14.6" ry="10"/>
			<path class="st33" d="m1394.3 870.2l-75-57.9 110.4 21.4-35.4 36.5z"/>
			<path class="st34" d="m1255.1 841.3l139.3 28.9-75-57.9-64.3 29z"/>
			<path class="st35" d="m1429.7 833.8l24.6 43.9-60-7.5 35.4-36.4z"/>
			<path class="st36" d="m1394.3 870.2l-60.5 129.1-78.8-158 139.3 28.9z"/>
			<path class="st37" d="m1454.3 983.8l-120.5 15.5 60.5-129.1 60 113.6z"/>
			<path class="st38" d="m1454.3 877.7v106.1l-60-113.6 60 7.5z"/>
			<path class="st39" d="m1255.1 991.3l78.8 8-78.8-158v150z"/>
			<path class="st40" d="m1309.7 1045.9l24.1-46.6-78.8-8 54.7 54.6z"/>
			<path class="st41" d="m1454.3 983.8l-118.1 68.2-2.4-52.7 120.5-15.5z"/>
			<path class="st42" d="m1309.7 1045.9l26.5 6.1-2.4-52.7-24.1 46.6z"/>
			<path class="st43" d="m1336.2 1052l8.8 16.8v-21.9l-8.8 5.1z"/>
			<path class="st44" d="m1336.2 1052l8.8 87.2v-70.4l-8.8-16.8z"/>
			<path class="st45" d="m1324.4 1049.1l20.6 90-8.8-87.2-11.8-2.8z"/>
			<path class="st46" d="m1365.3 1035.1l-20.3 46.7 0.1-13 20.2-33.7z"/>
			<path class="st47" d="m1345 1081.8l30.2-52.3-9.8 5.6-20.4 46.7z"/>
	</g>
	<g transform="matrix(.2602 0 0 .2602 -40.314 115.83)">
			<path class="st30" d="m1567.2 957.2v106.1l-118.1 68.2-26.5-6.1-54.6-54.6v-150l64.3-28.9 110.4 21.4 24.5 43.9z"/>
			<path class="st31" d="m1437.3 1128.6v90h20.6v-92.3l-8.8 5.1-11.8-2.8z"/>
			<path class="st32" d="m1457.9 1148.3l20.3-33.7 9.8-5.6-30.2 52.3 0.1-13z"/>
			<ellipse class="st32" cx="1443.4" cy="1219.6" rx="14.6" ry="10"/>
			<path class="st33" d="m1507.2 949.7l-75-57.9 110.4 21.4-35.4 36.5z"/>
			<path class="st34" d="m1368 920.8l139.3 28.9-75-57.9-64.3 29z"/>
			<path class="st35" d="m1542.6 913.3l24.6 43.9-60-7.5 35.4-36.4z"/>
			<path class="st36" d="m1507.2 949.7l-60.5 129.1-78.8-158 139.3 28.9z"/>
			<path class="st37" d="m1567.2 1063.3l-120.5 15.5 60.5-129.1 60 113.6z"/>
			<path class="st38" d="m1567.2 957.2v106.1l-60-113.6 60 7.5z"/>
			<path class="st39" d="m1368 1070.8l78.8 8-78.8-158v150z"/>
			<path class="st40" d="m1422.6 1125.4l24.1-46.6-78.8-8 54.7 54.6z"/>
			<path class="st41" d="m1567.2 1063.3l-118.1 68.2-2.4-52.7 120.5-15.5z"/>
			<path class="st42" d="m1422.6 1125.4l26.5 6.1-2.4-52.7-24.1 46.6z"/>
			<path class="st43" d="m1449.1 1131.5l8.8 16.8v-21.9l-8.8 5.1z"/>
			<path class="st44" d="m1449.1 1131.5l8.8 87.2v-70.4l-8.8-16.8z"/>
			<path class="st45" d="m1437.3 1128.6l20.6 90-8.8-87.2-11.8-2.8z"/>
			<path class="st46" d="m1478.2 1114.6l-20.3 46.7 0.1-13 20.2-33.7z"/>
			<path class="st47" d="m1457.9 1161.3l30.2-52.3-9.8 5.6-20.4 46.7z"/>
	</g>
	<g transform="matrix(.2602 0 0 .2602 -27.922 121.83)">
			<path class="st30" d="m1654.6 999.5v106.1l-118.1 68.2-26.5-6.1-54.6-54.6v-150l64.3-28.9 110.4 21.4 24.5 43.9z"/>
			<path class="st31" d="m1524.7 1170.9v90h20.6v-92.3l-8.8 5.1-11.8-2.8z"/>
			<path class="st32" d="m1545.3 1190.6l20.3-33.7 9.8-5.6-30.2 52.3 0.1-13z"/>
			<ellipse class="st32" cx="1530.7" cy="1261.9" rx="14.6" ry="10"/>
			<path class="st33" d="m1594.6 992l-75-57.9 110.4 21.4-35.4 36.5z"/>
			<path class="st34" d="m1455.3 963.1l139.3 28.9-75-57.9-64.3 29z"/>
			<path class="st35" d="m1630 955.6l24.6 43.9-60-7.5 35.4-36.4z"/>
			<path class="st36" d="m1594.6 992l-60.5 129.1-78.8-158 139.3 28.9z"/>
			<path class="st37" d="m1654.6 1105.6l-120.5 15.5 60.5-129.1 60 113.6z"/>
			<path class="st38" d="m1654.6 999.5v106.1l-60-113.6 60 7.5z"/>
			<path class="st39" d="m1455.3 1113.1l78.8 8-78.8-158v150z"/>
			<path class="st40" d="m1510 1167.7l24.1-46.6-78.8-8 54.7 54.6z"/>
			<path class="st41" d="m1654.6 1105.6l-118.1 68.2-2.4-52.7 120.5-15.5z"/>
			<path class="st42" d="m1510 1167.7l26.5 6.1-2.4-52.7-24.1 46.6z"/>
			<path class="st43" d="m1536.5 1173.8l8.8 16.8v-21.9l-8.8 5.1z"/>
			<path class="st44" d="m1536.5 1173.8l8.8 87.2v-70.4l-8.8-16.8z"/>
			<path class="st45" d="m1524.7 1170.9l20.6 90-8.8-87.2-11.8-2.8z"/>
			<path class="st46" d="m1565.6 1156.9l-20.3 46.7 0.1-13 20.2-33.7z"/>
			<path class="st47" d="m1545.2 1203.6l30.2-52.3-9.8 5.6-20.4 46.7z"/>
	</g>
	<g transform="matrix(.80549 0 0 .80549 -156.8 13.02)">
			<path class="st65" d="m544.8 468.6l-21.2-19.7-35.6-3.8-28.8 6.1-3.4 6.8h15.7l-17.4 3.4-1.7 3.4 11.4 7.6 21.2 6.8 51.5 2.3 8.3-12.9z"/>
			<path class="st66" d="m544.8 468.6l0.6 24.6-5.2 8.9-54.9-2.9-22.3-8.1-10.6-26.3 11.4 7.6 21.2 6.8 51.5 2.3 8.3-12.9z"/>
			<path class="st67" d="m455.8 458h15.7l-15.6 3.1-0.1-3.1z"/>
			<path class="st68" d="m544.8 468.6l-8.3 12.9 3.7 20.7 5.2-8.9-0.6-24.7z"/>
			<path class="st69" d="m484.9 479.2l0.4 20.1 54.9 2.9-3.7-20.7-51.6-2.3z"/>
			<path class="st70" d="m463.7 472.4l-0.8 18.8 22.3 8.1-0.4-20.1-21.1-6.8z"/>
	</g>
	<g transform="matrix(.30345 0 0 .30345 -77.082 109.11)">
			<path class="st65" d="m1206.1 1012.4l-21.2-19.7-35.6-3.8-28.8 6.1-3.4 6.8h15.7l-17.4 3.4-1.7 3.4 11.4 7.6 21.2 6.8 51.5 2.3 8.3-12.9z"/>
			<path class="st66" d="m1206.1 1012.4l0.6 24.6-5.2 8.9-54.9-2.9-22.3-8.1-10.6-26.3 11.4 7.6 21.2 6.8 51.5 2.3 8.3-12.9z"/>
			<path class="st67" d="m1117.1 1001.7h15.7l-15.6 3.1-0.1-3.1z"/>
			<path class="st68" d="m1206.1 1012.4l-8.3 12.9 3.7 20.7 5.2-8.9-0.6-24.7z"/>
			<path class="st69" d="m1146.2 1023l0.4 20.1 54.9 2.9-3.7-20.7-51.6-2.3z"/>
			<path class="st70" d="m1125 1016.1l-0.8 18.8 22.3 8.1-0.4-20.1-21.1-6.8z"/>
	</g>
	<g transform="matrix(.26122 0 0 .26122 -35.098 95.837)">
			<path class="st65" d="m1618.1 843.7l-129.1-7.5-32.1 54.6-53 14.5v32.1l33.8 31.6h122.1l85.2-43.4v-45.5l-26.9-36.4z"/>
			<path class="st71" d="m1489 836.2l-13.9 65.4-18.2-10.7 32.1-54.7z"/>
			<path class="st72" d="m1547.9 881.4l-58.9-45.3-13.9 65.4 72.8-20.1z"/>
			<path class="st73" d="m1547.9 881.4l70.2-37.8-129.1-7.5 58.9 45.3z"/>
			<path class="st74" d="m1644.9 880.1l-97 1.3 70.2-37.8 26.8 36.5z"/>
			<path class="st75" d="m1547.9 881.4l20.1 59.2 76.9-60.5-97 1.3z"/>
			<path class="st76" d="m1475.1 901.5l-37.5 67.5 130.4-28.4-92.9-39.1z"/>
			<path class="st77" d="m1403.8 905.3l53-14.5 18.2 10.7-71.2 3.8z"/>
			<path class="st78" d="m1644.9 925.6l-76.9 15-8.3 28.4 85.2-43.4z"/>
			<path class="st79" d="m1568 940.6l-130.4 28.4h122.1l8.3-28.4z"/>
			<path class="st79" d="m1644.9 880.1l-76.9 60.5 76.9-15v-45.5z"/>
			<path class="st80" d="m1475.1 901.5l-37.5 67.5-33.7-31.6 71.2-35.9z"/>
			<path class="st81" d="m1568 940.6l-92.9-39.1 72.9-20.1 20 59.2z"/>
			<path class="st82" d="m1475.1 901.5l-71.2 35.9v-32.1l71.2-3.8z"/>
	</g>
	<g transform="matrix(.2602 0 0 .2602 -106.68 99.08)">
			<path class="st30" d="m1099.3 839.1v106.1l-118.1 68.2-26.5-6.1-54.7-54.6v-150l64.3-28.9 110.4 21.4 24.6 43.9z"/>
			<path class="st31" d="m969.4 1010.5v90h20.6v-92.3l-8.8 5.1-11.8-2.8z"/>
			<path class="st32" d="m990 1030.2l20.3-33.7 9.8-5.6-30.2 52.3 0.1-13z"/>
			<ellipse class="st32" cx="975.4" cy="1101.5" rx="14.6" ry="10"/>
			<path class="st33" d="m1039.3 831.6l-75-57.9 110.4 21.4-35.4 36.5z"/>
			<path class="st34" d="m900 802.7l139.3 28.9-75-57.9-64.3 29z"/>
			<path class="st35" d="m1074.7 795.2l24.6 43.9-60-7.5 35.4-36.4z"/>
			<path class="st36" d="m1039.3 831.6l-60.5 129.1-78.8-158 139.3 28.9z"/>
			<path class="st37" d="m1099.3 945.2l-120.5 15.5 60.5-129.1 60 113.6z"/>
			<path class="st38" d="m1099.3 839.1v106.1l-60-113.6 60 7.5z"/>
			<path class="st39" d="m900 952.7l78.8 8-78.8-158v150z"/>
			<path class="st40" d="m954.7 1007.3l24.1-46.6-78.8-8 54.7 54.6z"/>
			<path class="st41" d="m1099.3 945.2l-118.1 68.2-2.4-52.7 120.5-15.5z"/>
			<path class="st42" d="m954.7 1007.3l26.5 6.1-2.4-52.7-24.1 46.6z"/>
			<path class="st43" d="m981.2 1013.4l8.8 16.8v-21.9l-8.8 5.1z"/>
			<path class="st44" d="m981.2 1013.4l8.8 87.2v-70.4l-8.8-16.8z"/>
			<path class="st45" d="m969.4 1010.5l20.6 90-8.8-87.2-11.8-2.8z"/>
			<path class="st46" d="m1010.3 996.5l-20.3 46.7 0.1-13 20.2-33.7z"/>
			<path class="st47" d="m989.9 1043.2l30.2-52.3-9.8 5.6-20.4 46.7z"/>
	</g>
	<g transform="matrix(.24088 0 0 .24088 -96.865 114.85)">
			<path class="st30" d="m1016.1 945.8l60.1-27 97.6-7.5 66.1 10.5 16.5 45.1-1.5 88.6-33 54.1-51.1 16.5-75.1-1.5-48.1-49.6-15-64.6-16.5-64.6z"/>
			<path class="st48" d="m1137 1124.9v111.5h28.4v-110.4l-28.4-1.1z"/>
			<ellipse class="st48" cx="1150" cy="1236" rx="15.4" ry="10.1"/>
			<path class="st49" d="m1076.2 918.8l35.3 21.3-95.4 5.7 60.1-27z"/>
			<path class="st50" d="m1191.4 987.1l48.5-65.3 16.5 45.1-65 20.2z"/>
			<path class="st51" d="m1111.5 940.1l62.3-28.8-97.6 7.5 35.3 21.3z"/>
			<path class="st52" d="m1111.5 940.1l128.4-18.3-66.1-10.5-62.3 28.8z"/>
			<path class="st53" d="m1111.5 940.1l79.9 47 48.5-65.3-128.4 18.3z"/>
			<path class="st54" d="m1191.4 987.1l63.5 68.4 1.5-88.6-65 20.2z"/>
			<path class="st55" d="m1221.9 1109.5l-30.5-122.4 63.5 68.4-33 54z"/>
			<path class="st56" d="m1102.2 1017.1l-54.5 57.9 48.1 49.6 6.4-107.5z"/>
			<path class="st57" d="m1102.2 1017.1l68.6 108.9-75.1-1.5 6.5-107.4z"/>
			<path class="st58" d="m1102.2 1017.1l89.2-30-20.6 138.9-68.6-108.9z"/>
			<path class="st59" d="m1191.4 987.1l-20.6 138.9 51.1-16.5-30.5-122.4z"/>
			<path class="st60" d="m1047.6 1075l-31.5-129.2 86.1 71.3-54.6 57.9z"/>
			<path class="st61" d="m1102.2 1017.1l9.3-77 79.9 47-89.2 30z"/>
			<path class="st30" d="m1016.1 945.8l95.4-5.7-9.3 77-86.1-71.3z"/>
			<path class="st62" d="m1146.4 1125.6l19 110.9v-110.5l-19-0.4z"/>
			<path class="st63" d="m1165.4 1126l0.1 61.1-9.2-61.3 9.1 0.2z"/>
			<path class="st64" d="m1138.3 1125.4l27.1 111-19-110.9-8.1-0.1z"/>
	</g>
</svg>
